<svg
  xmlns="http://www.w3.org/2000/svg"
  width="4224"
  height="3168"
  fill-rule="evenodd"
  stroke-linecap="round"
  stroke-linejoin="round"
  paint-order="stroke"
  viewBox="720 1440 43000 32000"
  stroke="#d4bfa8"
  stroke-width="24"
>
  <path
    d="M42823 33185a544 544 0 0 1-51 101c-4 6-7 8-9 5-2-2-4-25-5-53-2-37-3-50-7-51-9-4-21 4-49 30l-30 28c-5 0-36-40-36-46 0-2-1-7-4-9-4-4-33-6-43-2-7 3-6 14 1 14 14 0 19 59 7 78-9 15-8 16 7 20 21 6 24 3 22-20-2-25 1-53 6-53 2 0 11 8 19 18 16 20 21 23 28 14 9-10 55-43 56-39 3 8 0 54-4 64-3 7-3 11 0 14 5 7 18 9 26 5 5-3 9-3 16 0 12 5 24 0 22-10-1-3 1-8 4-11 4-5 10-5 36-3 17 1 33 4 35 6 3 2 4 8 4 14-1 9 0 12 7 16 11 5 16 6 50 5 21 0 25-1 25-6 0-3-2-8-4-10-3-3-4-17-4-44 0-51 3-58 27-58 13 0 18 2 26 9 10 8 10 10 9 22-3 18-13 26-28 23-13-2-23 4-18 12 3 4 42 3 56-2 29-12 25-63-7-73-15-5-56-5-74 0-19 5-23 9-19 16 9 17 11 82 3 95-4 7-10 0-27-35a333 333 0 0 0-38-59c-6-10-15-20-20-22-10-6-10-6-15-3zm19 47c6 9 9 18 8 21-2 5-38 8-40 3s14-41 18-41c2 0 8 8 14 17zm244-43c0 2 5 8 12 12l11 10-1 45c-1 58-1 58 32 57 49-3 77-33 50-56-11-8-11-9-6-19 6-14 3-31-7-40-5-4-13-5-29-6-35-1-47-2-54-4-5-2-8-1-8 1zm75 30c4 8 0 18-10 21s-6 12 8 20 19 14 16 22c-2 7-18 15-28 15-14 0-17-8-16-40 0-34 2-41 11-43 14-2 15-2 19 5zm139-31-12 3c-7 1-12 7-19 20-6 10-12 18-15 20-5 1-15-8-23-23-3-6-8-9-13-9-13 0-13 6 1 21 20 21 28 41 26 63s1 30 14 30c12 0 16-10 13-32-4-23 2-38 26-64 9-10 16-20 16-21 0-4-10-9-14-8zm-786 158c-10 2-21 5-24 8-5 4-4 5 6 5 22 1 68 0 116-2 27-1 54-1 60 1l12 3 2 29c1 16 1 30-1 32-1 1-17 4-36 5-31 3-44 5-97 17-22 4-53 17-53 22 0 7 34 20 67 26l25 7c7 4 18 4 166 3 51 0 55-1 81-10 53-18 69-33 69-62 0-13-2-17-11-26-17-17-34-24-77-35-73-18-127-24-210-25l-95 2zm222 20c41 5 93 19 112 28 23 12 33 23 35 39 2 12 1 15-8 23-28 26-148 43-168 23-3-3-4-7-2-10 1-2 2-9 1-16-3-18 3-21 39-18 32 2 58 9 70 19 7 5 28 5 34-1 4-3-20-18-35-22-16-4-95-11-99-9-6 4-14-8-14-20l-1-22c-3-20-3-20 36-14zm-47 82c2 6 2 16 1 24-2 12-3 13-13 15-6 1-35 0-65-3-53-4-75-10-72-19 1-4 29-14 43-15l20-3c5-2 22-4 38-5l31-3c4-5 14 0 17 9zm357-58c-8 10-9 16-5 38 3 18 2 21-3 24-10 8-20 6-25-6s-15-20-20-16c-2 1-6 7-9 13-8 15-17 13-18-3-1-14-7-18-21-14-11 3-25 19-25 29 0 5 3 10 8 13 7 5 10 5 17 2 5-3 16-4 24-4 12 1 17-1 21-6l6-6 10 8c8 7 12 8 21 6 7-1 33-3 60-3 42-1 49-2 60-8l12-8 7 9c9 11 11 11 23-3 12-13 16-14 21-5 3 6 16 10 16 4 0-5-16-27-20-27l-12 6c-9 5-10 5-18-2-14-10-24-9-29 3-3 8-11 16-17 16-1 0-2-4-2-9 0-24-26-22-30 3 0 7-2 8-14 9s-14 0-14-5c0-3 2-9 5-12 2-4 5-14 5-22 0-13-2-16-10-22-12-9-17-9-24-2zm-100 60c-4 7-7 8-11 4-3-3 8-14 11-12 2 1 2 5 0 8zm325-27c-3 3-7 10-9 15-3 9-4 9-15 7-10-1-11-1-10 4 1 8 21 10 34 3 8-4 23-5 70-5l79-2c11-2 45-3 76-2 52 0 57 1 70 8 12 7 13 8 11 18-1 9-1 10 4 10 9 0 13-13 8-24-12-25-63-30-228-20-46 3-59 1-63-10-4-9-19-10-27-2z"
  />
</svg>
