<svg
  data-v-fe706559=""
  class="map-svg"
  xmlns="http://www.w3.org/2000/svg"
  viewBox="720 1440 43000 32000"
  width="4224"
  height="3168"
  style="fill-rule: evenodd; stroke-linejoin: round; stroke-linecap: round; paint-order: stroke"
>
  <!-- <map-greyhawk-background /> --><!-- <map-grid
    class="map-grid"
    v-if="scale >= 0.5"
    :size="192.25"
    :x="708"
    :y="1185"
    :width="43060"
    :height="32300"
  /> --><!-- <terrain-names /> --><!-- <map-greyhawk-terrain /> --><!-- <river-names />
  <roads-line /> -->
  <path
    class="map-lake-stroke"
    d="M16650 9158c-8 86-39 177-69 244-29 67-91 154-147 192-57 37-69 104-55 166 15 63 38 173 38 221s-27 169-75 202-65 113-52 165c12 52 85 183 71 212-15 29-34 117-82 144s-175 194-212 233c-38 40-25 140-17 186 9 46 56 125 36 160-21 36-61 111-59 148 2 38 11 131 0 177-10 46 11 136-39 171s-90 96-102 131l-73 217c-25 73-32 83-25 112s10-33 91-29c82 4 190-37 219-79s173-94 219-150 67-108 71-221c4-112 0-171 50-202s196-148 225-167c29-18 98 28 110 65s67 138 75 177c8 40-19 104 106 56s192-120 217-202 31-314 144-381c112-67 225-167 285-154 61 12 148 73 152 102s57 104 57 150 35-15 66-69 40-62 119-114 140-117 135-186c-4-69-35-171 73-206 109-35 171-98 225-133 54-36 84-117 50-188s-89-244-73-283c17-40 15-142 94-198s131-158 208-223c78-65 88-123 71-185-16-63-8-203-106-215s-131-52-131-81 104-157 152-184-8 2-129 34c-121 31-167 66-215 91s-58 40-37 100 68 115 43 165 11 94-70 110-138 90-207 117c-68 27-81 83-156 88-75 4-102 54-142 85-39 31-62 123-102 150-39 27-112 96-154 52s-77-110-164-167c-88-56-146-68-209-98s-81-135-133-135-186 15-213-33-73-123-79-167-35-69-75-173zm-6341-2238c-34 73-34 117-94 167s-137 160-208 144-162-71-224-57c-61 14-119 78-119 112s51 121-13 153a349 349 0 0 0-147 156c-16 45-16 128 25 141 42 14 257 117 323 158s144 105 155 156c12 50 5 132 69 157 64 26 263 0 302 14s100 55 123 98c23 44 101 76 151 87 50 12 158 94 172 133 13 39 18 119 107 160s117 7 172-27c55-35 121-35 180 4 60 39 156 110 197 162 41 53 80 103 55 149s-73 124 9 149 215 130 217 178 50 92 16 167-91 149-55 201c37 53 87 140 76 199-12 60-35 137-28 199s-7 135 41 176c49 41 179 131 172 172s32 91-48 121 30 23 107-21 87-45 92-109c4-65-39-124-32-177 7-52 27-144 2-189-25-46-41-174 5-174s64 30 121 64 89 57 149 48c59-9 61-44 43-89-18-46-34-119-57-172-23-52-53-87-16-119 36-32 48-96 46-128-3-32-46-183-7-199s114-68 135-98c20-30 45-80-5-112a750 750 0 0 1-171-185c-14-35-42-99 6-153 48-55 67-122 149-167 82-46 126-39 96-131-30-91-46-125-130-146s-243-69-323-142-98-130-61-190c36-59 68-123 61-157-7-35-4-80-87-99-82-18-155-59-198-103-44-43-106-57-183-100-78-44-115-76-174-101-60-25-115-41-124-16s3 92-82 121-114 71-190 37-100-85-171-119-133-59-211-69c-77-9-91-45-121-9-30 37 18 80 18 121s7 101-50 78-192-50-231-100c-39-51-68-138-68-183 0-46 17-96 24-129 7-34 13-109 11-129-3-21 0-18 1-83zm10729 9558c-70 19-130 61-155 93-25 33-25 101-35 118-11 17-12 13 32 7 45-5 71 20 105 6 33-15 132-42 118-68s-27-57-22-82 48-53 65-60c17-6-57-19-108-14zm-233-8822c-60 91-82 121-112 178s3 109-3 148c-5 38-55 133-65 169-11 36 21 85 90 46 68-38 84-103 145-123 60-19 159-51 159-112 0-60-4-84-64-95s-117-26-131-49c-14-24-21-92-17-106 4-13-3-17-2-56zm-9376 20843c-14 31 43 100-5 138-49 39-66 115-110 131-43 15-138 47-159 67-21 21-51 70-30 75s42 54 108 36c66-17 116-76 175-72 59 3 96 3 141-33 45-37 80-65 64-98s-75-71-115-102-20-57-69-142zm4229 5334c-11-66-66-96-37-207 30-111 90-125 84-231-7-106-59-260 19-324 78-65 109-153 112-216 4-62 54-187 106-224 52-36 122 26 177 72 56 45 33 131 61 189 28 57 44 73-17 125s-71 132-26 179c45 46 111 177 88 234l-83 207c-10 26 26 173-40 180s-377 63-444 16zM1336 24626c30-33 27-142 18-193-9-50 3-142-54-166-57-25-95-42-109-77s-37-66 27-60c65 5 214 26 228 59s26 112 64 144c38 31 104 88 137 99 33 10 61 26 75 80 14 53 33 133 35 185 1 52-11 130-61 103-50-28-120-66-170-103-51-36-68-106-190-71zm8724-2393c-19 43-8 57-66 78s-140 68-164 80c-25 12-23 55-61 45s41 38 99 54c57 15 158 52 166 71 9 19 13-9 7-68-5-59 11-132 11-165s-4-38 8-95zm10317-8420c39 18 133 49 204 9 71-39 183-154 296-181 112-27 264 29 369 21 104-8 300-88 345-119 46-31 140-71 207-60 66 10 229 29 289 37 61 9 134 17 182-8 47-25 125-21 200-21s116 77 160 104 83 63 142 67c58 4 145 60 160 35s21-83 33-100 88-8 90 21 35 150 33 169-48 94-35 129c12 35 46 138 77 167s110 71 150 66c40-4 127 69 142 80 14 10 123 123 131 160 8 38 46 121 39 169s-41 173-39 223-11 131 4 193c15 63 0 184 23 234s62 146 37 166c-25 21-89 28-91 55s69 70 85 116c17 46 15 140-29 175-44 36-98 90-98 140s-10 121 31 154c42 33 59 71 5 38-55-34-50-7-146-42-96-36-113-71-202-117-90-46-117-62-125-125-9-62-7-173-30-225-22-52 30-148-81-177-110-29-112-71-198-100-85-29-171-89-262-129-92-40-244-158-323-158s-138 12-213 52c-75 39-141 64-208 52-67-13-281-25-306-6s-115 172-169 237-102 175-154 210c-52 36-106 125-183 161-78 35-136 110-200 127-65 17-132 96-203 100-70 4-168 4-216-23s-90-85-150-85-123 37-154 37c-32 0-71 25-111 31-39 7 77-54 104-85s92-108 98-154c7-46-29-119-48-169s7-110 38-150 75-144 89-185c15-42 71-119 30-121-42-2-117 66-144 98s-117 87-183 123c-67 35-109 129-169 164a500 500 0 0 0-154 165c-9 29 35 131 8 162-27 32-108 90-181 111s-182 66-290 127c-108 60-221 194-308 219-88 25-356 116-425 131-69 14-223 52-277 58s-23-8-196 25c62-52 39-81 98-112 58-32 241-165 294-188 52-23 172-127 237-150s229-162 294-192c64-29 123-160 131-200 8-39-6-102 50-141 56-40 217-317 250-371s81-165 127-208c46-44 111-148 129-190 19-42 77-179 94-212 17-34 79-148 115-180 35-31 2-62 85-68 83-7 123-13 183-32 61-18 92-52 75-76-13-19-40-19-65-32-59-29-122-76-145-120-22-43-45-66 4-93s109-53 165-68c55-16 132-38 177-26 34 9 140 45 202 81zm7047-6993c33-30 5-57 73-94 68-36 83-81 149-64s132 35 105 101c-28 66-188 79-223 73-34-7-3-7-104-16zm8458-3247c-54 32-92 73-141 98-48 24-53 50-14 52 40 1 226-11 244-44 17-33 52-147-89-106z"
    style="fill: none; stroke: rgb(45, 59, 59); stroke-width: 16"
  ></path>
  <g class="map-coast-stroke" style="fill: none; stroke: rgb(24, 42, 41); stroke-width: 16">
    <path
      d="M22672 31161c-44 25-55 56-86 83s-44 59-104 69-71 19-110 35c-38 17-59 34-60 55s-9 59 21 65c30 5 80 15 86 36 5 21 10 66-12 81s-69 73-82 93 0 82 37 93 55 24 89 13 90-79 124-91c33-12 100-57 126-67 27-10 61-28 60-57s-4-122-3-139c1-18-10-72 6-82 15-11 53-64 52-99-2-34-14-87-44-93-31-7-51-2-100 5zm-942 899c-30 25-32 51-83 62-50 11-117 24-141 47-25 23-38 91-90 101-52 9-133 15-162 22s-54 25-71 50-33 55-9 85c25 29 48 54 100 47s130-6 150 13c19 20 11 66 34 79s40 39 102 32 110-15 122-40c11-24 21-52 3-69-18-18-11-38 14-39 26 0 148 13 197 8 49-4 69 1 82 15s42 68 70 82c29 14 67 27 83 19 15-8 45-51 44-78-1-26-16-111-15-139s-21-88-20-108-1-67-28-81c-28-14-87-65-129-83-42-17-36-44-52-50-16-5-73-11-98-7s-69 12-103 32zm2678-1652c18-42 29-78 57-91 29-14 123-99 153-114s69-64 93-83c23-20 53-56 66-71 14-15 35-49 53-59s27-33 65-37c37-4 57-19 78 1 22 19 12 60 56 43s52-57 85-61c33-3 94 21 127 28s79 0 120-10 131-18 153-23c23-6 78-25 109-17 32 7 88 28 120 43s105 37 103 48-11 62-47 70-77 33-104 47c-26 15-115 70-145 84s-83 71-95 85c-12 13-47 52-77 52s-100 24-132 12-95-30-128-41-69-21-102-25c-32-5-67-7-96 9-30 16-35 83-53 99-18 17-17 44-59 56-43 12-59 33-96 36-37 2-135 27-166 27-31-1-119-6-134-9s-36-11-30-27c5-16 4-33 26-72zm-9242-3072c-8-44 21-75 3-112-18-38-6-71-47-75-40-4-80 13-102-4-22-18-16-45 4-61 20-15 18-52 9-68s16-40 44-54c29-13 39-55 32-72-8-18-59-61-82-84s-52-84-38-99c13-14 52-53 79-57s138-35 156-24 50 75 63 97c12 22 49 93 16 119-32 26-52 116-78 131-26 14-25 69-19 83 5 15 22 88 27 96 4 8 7 70-4 85-10 16-13 55-21 64s-10 51-20 52c-11 0-14-6-22-17zm1692-766c-60 36-52 43-91 66-38 23-67 52-100 56-32 4-54 2-79-5s-49-24-68-17c-20 8-84 27-101 22-18-5-3-49-41-42-39 8-69-4-129 9-61 12-108 35-147 22-40-14-92-33-118-46-26-14-72-60-107-53s-42 17-62 36-44 56 4 58c47 3 104 15 119 30 16 14 94 63 103 77 10 13 89 54 142 74 53 19 53 48 97 54s142 21 168 28 76 53 83 71 48 40 99 35 151 5 182-1 98-40 119-56 63-41 61-83c-1-43-13-85-31-119-17-34-5-54 5-70 11-16 65-63 63-86s0-96-51-91-69 30-81 33c-13 3-9 3-39-2zm-1383-539c-44 13-76 25-82 34-5 9 26 32 24 49s-22 39-36 56l-56 65c-11 12-22 39-55 47-33 7-67 28-71 36s-10 31 26 33c35 3 124-19 144-6 19 14 95 33 112 63 18 30 51 47 68 67 16 21 68 42 84 57 15 14 22 28 89 22 66-7 84-19 96-43s20-89 20-115c-3-26-15-90-9-109s34-42 48-61 32-58-7-53c-40 6-101 5-152-9-52-14-88-30-97-53-10-23-39-52-62-68-23-15-44-28-84-12zm5997-12205c-6 15 1 36-5 52s-24 44-47 47-103 29-132 32c-28 3-72 9-91 17s-43 35-43 53-6 70 10 85c17 15 39 55 68 51 28-4 93-17 101-35 8-19 81-101 105-110l98-30c23-5 102-18 112-37 9-19 26-63 14-77-12-13-29-68-53-74s-78 0-94 5c-15 5-34 4-43 22zm12088 20004c-117-50-291-125-380-193-89-69-133-117-204-156-70-39-267-131-361-162-93-31-178-68-240-60-63 8-262 39-301 2a793 793 0 0 1-146-164c-12-37 7-311 46-363s81-222 156-243c74-21 195-83 230-102 35-18 83-124 141-114 58 11 218 56 276 48s193-21 289-71c95-49 145-60 211-81s137-49 137-93 19-133-4-185 25-141 31-178c7-38 17-139-8-185s-54-120-19-160c36-39 40-93 13-116s-79-93-94-120c-14-27 36-114 83-125 42 0 169-10 198-29 29-20 100-49 137-33s136 79 184 97c48 19 84-12 119-29s79-45 118-34c40 10 201 32 267 59 65 27 152 2 151 43-1 40-36 76 10 97s172 72 186 107c13 35 75 150 90 194 16 43 47 116 84 125 36 8 161 17 209 3 48-15 168-52 209-44 42 8 116 1 151 31 36 31 122 57 156 59 33 2 115 17 136 40s182 150 225 161c43 10 92 105 159 139 68 35 171 78 230 91 58 12 118 46 159 78s162 138 211 176c49 39 253 196 290 221 38 25 136 65 217 72 80 7 254-6 288-32 35-27 84-45 128-36 45 9 116 95 189 93s195-18 245-34c50-15 113-34 177-13 63 21 149 34 220 22 70-13 155-6 228-20s140-6 178 20 120 78 95 115-61 100-91 124-29 62 0 81c29 18 128 36 176 56s133 37 175 10 35-54 84-68c49-15 151-55 145-75s11-89 66-100c55-12 103-28 119-35 15-7 32 3 86-27s78-70 86-117c9-46 52-105 32-157s-37-123-4-138c32-16 78-40 119-25 42 14 174 117 224 133s129 76 179 77 123 25 166 39c43 13 82 16 46 58-37 42-84 174-88 197-3 23 7 107 24 135 18 28 107 102 192 121s126 51 150 76 147 73 189 84c41 12 161 95 179 117 17 22 57 98 133 115 76 16 155 55 157 79s-20 57 20 84c41 27 135 141 122 195-12 54-654 92-690 69-35-23-7496-26-7496-26zm-521-3368c-30 27-35 43-54 65-20 22-38 50-63 65-25 14-54 30-51 57 2 28-3 68 31 62 33-5 134-45 149-60 14-16 14-50 55-34 42 16 67 44 101 12s60-108 60-135c0-26 1-71-34-72-36 0-25 18-79 26-54 9-93-9-115 14zm1978-1710c-50 31-82 64-119 80-38 15-80 19-92 56-12 38-23 119-30 144s-56 83-62 117 11 69-29 88c-40 20-69 49-144 44-74-5-140-21-178-62-39-41-44-82-90-73-46 8-95 54-102 81-8 26 6 79 17 124 10 45 25 97 6 138-20 41-16 82-5 122s58 104 43 136c-14 33-22 88-59 110s-66 83-130 110-159 57-163 74c-5 17-4 89 15 116 20 26 27 73-1 114s-17 99 1 140c18 42 46 90 90 71s76-78 106-58c30 19 100 88 144 145 43 56 50 88 104 68 53-19 72-48 70-78-3-30-16-67 32-75s114 2 134-21c21-23 24-62 5-103-19-42-47-150-29-195s24-87 102-115c77-27 148-53 186-76 37-23 102-38 102-71s-37-59 15-71 134-27 169-73 55-112 37-168c-18-55-17-102-2-123 14-20 35-58 30-117s7-134-37-178c-45-43-38-99 3-135s32-89 36-115c5-25-3-85-33-114-31-29-107-73-142-57zm644 347c-62 15-174 56-209 78s-41 61-39 99c3 39 45 70 29 109-15 39-38 130-44 173-6 42-14 120 19 159s38 62 93 82c56 21 199 17 236 18 36 2 75-15 106 10s37 82 71 121c34 38 64 116 55 147-10 32 8 39 45 63 38 24 90 42 106 24 15-18 72-88 116-138 43-49 91-153 93-181 1-27-15-129-31-168-15-38-20-161 29-212 50-51 53-143 115-157 62-15 124-27 172-26 47 2 95-23 105 10 9 33 26 85 56 100 31 16 91 57 79 76-12 20-80 97-85 116-4 20-45 120 10 126 56 6 114-4 129-34 16-30 28-136 31-177 2-41-9-116 9-136 18-19 86-58 92-81s2-93-25-132c-28-40-54-113-90-133-36-21-35-53-105-66-70-12-107-26-156-68-48-43-37-80-89-74s-105 25-111 60-16 139-45 169c-29 31-55 26-99 27-43 1-36 21-111 41-75 21-137 54-187 64-51 10-72 11-116 1-45-9-172-90-254-90zm985-607c-64 16-138 38-142 59-4 20-6 86 24 84 30-1 165-2 184 11s90 69 102 82 63 40 74 11c12-28 18-164-9-186s-55-73-88-79c-34-7-112-7-145 18zm168-1003c-22 45 5 76-27 115-33 39-35 86-84 112-48 26-138 125-161 147-24 22-21 73-26 98s-16 140-25 161-23 129-1 149c22 19 26 54 81 58 54 4 97 15 147-2 49-17 97-38 139-42s49 38 64 61c14 24 60 106 88 133 29 27 78 99 133 102 55 2 119 11 147-17 29-29 41-112 51-103s31 36 92 21c62-16 124-81 141-105 17-23 59-61 120-53s130 31 178 25c48-7 99 5 120-46s48-97 70-152c23-55 56-93 0-122-56-30-101-37-208-68s-213-95-268-121-100-42-100-95c0-54-19-192 5-223s27-90 70-108 108-37 132-39c23-3 70-12 57-43s-17-47-66-64-70-22-106-1-65 53-109 60c-45 6-125 13-142 40s-30 64-33 100c-2 37 28 82-5 120s-29 82-86 85c-57 2-107-24-125-63s-61-99-96-122c-35-24-33-38-82-27-50 10-75 7-85 29zm2339 261c-56 26-81 55-128 64s-161 61-169 67c-8 7 21 42 2 46-18 4-71 29-101 38s-108 41-128 48c-19 6-44 30-49 47-6 17 28 51 75 82s117 66 159 83 86 38 137 13 96-66 130-85c34-18 75-19 98-46 22-28 24-52 84-64s103-13 132-34c28-21 64-66 56-87s-26-48-90-78-146-101-208-94zm753-835c-35 28-33 90-104 99-70 9-104-6-133 24-28 30-54 76-74 91-19 14-40 74-83 97-43 24-77 60-70 76 6 16 10 51 49 53 39 3 73 38 104 20 32-18 89-39 127-34 37 5 78 29 136 10 59-18 98-7 123-43 24-35 65-101 26-112-39-10-77-26-111-41-34-16-52-44-34-60s82-37 115-60c32-23 56-64 60-87 4-24-32-52-64-59-33-6-30-13-67 26zm541-663c-34 21-50 54-95 45-46-9-85-2-110 19-24 21-46 55-58 82-12 28 8 55-38 82-46 28-70 50-85 64-14 14-35 54-11 68 23 14 47 22 79-9 33-32 25-55 98-69 73-15 134-19 156-48 22-30 48-59 51-86 2-28 75-43 81-69 5-26-20-107-68-79zm1861-613c-25 24-33 85-38 115s-3 90-20 123c-17 32-44 114-83 129-39 14-53 36-106 22-52-15-162-57-221-68-58-10-112-1-167 12-54 13-87 57-153 68-67 10-102 24-115 50s-31 62 16 73c47 12 215 52 256 29 42-24 46 2 46 25s8 103 1 155c-6 52 3 205 42 234s124 104 172 118c48 15 134 90 164 109 30 18 78 49 113 76 35 28 60 65 109 50 50-16 88-39 122-69 33-30 9-67 83-65 74 1 170 45 208 73 38 27 65 79 154 65 88-15 154-15 182-45 29-29 85-100 90-141 5-42-1-105-76-111-74-7-111-3-156 2-44 6-101 16-121-10s-55-61 0-81 137-37 177-65c41-27 128-101 130-127 3-26-7-164-50-184s-105-36-142-25c-38 12-94 78-141 94s-112 64-141 70c-28 7-42 38-78 62-35 23-84 84-117 95-32 10-94 48-100 18-7-30-5-171 16-198 20-27 70-179 106-208 37-30 67-75 76-98 9-24 34-156 32-185-1-29 0-98-31-111s-120-75-139-74c-20 1-39-38-100-2zm-335-986c-44 21-70 66-93 91-22 25-71 98-102 113-32 16-64 39-45 47 20 8 69 46 97 31 27-14 73-62 97-74 25-12 84-30 106-30s45-4 66-28c21-25 33-60 24-89s-13-52-39-56a538 538 0 0 0-111-5zm440-340c-59-12-81 3-125 3s-78 15-59 31c20 15 39 60 33 78l-39 91c-12 27-37 73-21 96 16 24 35 62 78 53 43-10 87 2 94 16 6 15 0 58 35 51 35-6 91-26 99-5s40 34 69 43 68 27 104-6c37-34 69-75 112-97s71-43 107-60 74-44 73-69c-1-24 10-44-60-43-70 2-151-1-206-5s-118 4-142-29c-23-32-67-53-74-82-6-28-22-67-78-66zm757-852c-58 12-107 42-166 52-58 11-78-13-101 43-24 56 9 81 10 123s13 65-31 101c-44 37-59 86-55 122 4 35 34 70 30 111-4 42-8 106-39 139-31 32-61 83-30 102 31 20 50 106 129 102s143-37 158-79c14-43 104-127 104-158s35-129 48-171c13-41 75-160 49-201-26-42-5-142 3-168s-61-121-109-118zm-832-523c-47 14-11 44-77 55-67 10-116 37-155 35-39-3-52 2-72 25s-44 67-47 83c-2 16-36 57-5 61s92 46 104 20 29-39 67-28c37 12 79 41 79 41s23 80-21 87c-44 6-87-8-117 0s-78 43-107 52c-28 9-40 43-30 61 11 18 17 98 45 112 27 14 54 78 54 100 0 23 30 105 37 135 6 29 75 119 97 141 23 23 11 63 59 71s103 19 141 32c37 13 73 43 97 28 25-16 71-37 80-77 9-41 57-107 27-133s-34-66-81-91-58-51-34-82c25-31 59-86 115-120s113-85 126-113c13-29 45-85 56-123 12-37-31-149-54-181-24-31-94-88-134-114-41-26-161-93-250-77zm-1536-917c13-21 30-21 43-34 13-14 42-31 47-26 5 6 20 19 13 38-8 19-21 48-5 60s58 30 59 42c2 11-11 53-19 66-7 12-36 48-67 46-30-3-56-4-44-19s25-46 10-69-33-50-33-61c-1-10-31-9-4-43zm44-1687c-49 28-51 40-53 79-3 40 13 77 29 112 15 34 33 70 15 95s-41 81-56 98c-16 16-45 66-22 78 22 12 63 63 76 89 12 27 20 70 12 95-7 26-45 68-51 100-6 33 9 84 18 98 8 14 29 83 33 103 3 20-8 87 5 99 13 11 14 50 36 46 22-5 35-30 45-64s-11-90-14-112c-2-23-1-61 7-94 7-32 37-75 35-107-1-32-17-80-23-112-7-32-8-113-8-129s13-100-1-126c-15-26-29-58-7-77 21-18 60-75 71-102s4-109-5-126-7-48-37-49c-31-1-52-10-105 6zm-7-1660c-19 26-43 88-79 104s-63 38-93 40c-30 3-61 18-89 40-27 22-57 65-43 90s47 66 72 89c24 23 68 63 64 85-3 22 6 64-24 79-29 14-89 40-85 69 5 28 34 45 72 53s91 10 129 30c38 21 53 57 49 85-5 29-3 70-47 88-43 18-74 52-117 76-42 25-70 24-72 78-1 53-18 117-30 149-11 32-6 87-1 108 4 20 35-1 55-20 21-18 39-48 96-64s72-40 108-65c37-25 69-41 86-70 18-29 46-90 47-141 2-52 0-102-4-152s-11-138-1-175c10-36 11-104 43-131s70-95 98-123c29-29 47-68 37-86-9-19-64-101-86-124-21-24-80-94-95-106-14-12-8-28-31-28s-46 5-59 22zm1676-248c-30 15-73 54-125 61-52 8-111 19-162-5-52-23-55-66-104-79-48-13-87-20-139-2-52 17-103 63-135 85-32 21-75 43-92 69s-32 71-39 105-33 102-22 123c12 22 54 76 91 98 36 21 78 58 121 60 44 3 83 11 123 15s56 14 52 39c-5 25-4 63-49 70s-49-5-55 17-18 48 7 57l119 43c24 9 50 22 107 16 56-6 77-22 99-64s44-121 47-161c2-39-11-114 20-139 30-25 73-78 101-88 29-10 52-13 62-46 9-33 23-112 46-143 22-31 44-77 36-94-9-16-47-52-109-37zm-1642-1272c-17 34-24 37-34 77-11 41-18 92-44 115-25 22-50 55-34 82 15 28 47 56 92 62s162 13 193 22 74 0 73 37-6 84-60 104-85 48-123 51c-38 2-50 18-58 37s-7 83-2 119c5 35 11 63-7 95s-35 92-38 112c-4 20-30 51 3 55 33 3 145-15 171 1 27 15 59 69 71 90 11 21 21 56 60 63 39 8 66 9 108-28 43-37 47-103 95-117 48-15 84-46 110-72 26-25 35-144 27-185s-23-129-23-144c0-16-7-109 7-134s32-120 9-151 4-66-66-103-97-92-145-110c-48-17-74-30-100-30s-50-17-74-31c-23-13-30-20-67-20-38-1-91-26-144 3zM152 10491c65 17 132 30 246 28 218-3 323 25 403 53 79 27 147 46 210 97s109 67 156 123 43 54 94 71c50 18-2 104 67 113 70 9 115-3 176-38 60-35 175-103 250-137s99-52 121-104c23-53 52-98 115-80s95 50 74 71c-20 21-99 133-118 154s-29 77 19 99c49 23 134 87 190 85 55-1 149-33 205-53 55-21 46-72 95-86 49-13 75 6 135-6 61-13 105-7 151-53 47-45 80-104 106-83s37 96 99 111c63 16 14 49 117 37 102-12 159-63 227-65 68-1 85 44 109 77 25 33 28-51 21-101s38-73 37-101c-2-27-14-88-54-121s-90-73-92-118 52-137 78-172 87-168 94-198c7-29 15-64-40-106-56-41-127-97-134-121-7-25 0-84 31-122s68-80 56-121c-12-42-2-75-43-120-42-45-124-94-160-143-37-48-75-100-77-145-1-46-31-151-29-197 2-45 33-99 76-125 44-26 124-76 141-105 17-30 78-72 99-53 21 20 137 106 181 145 43 38 90 119 142 151 52 31 71 60 123 38s141-42 139-90c-2-49-5-202-9-259-3-57 39-160-14-207-52-47-138-151-158-179-19-27-13-90 28-135 42-45 106-94 124-156s5-143 62-198c57-56 122-151 198-182 76-32 220-66 236-101s36-158 50-182c14-25 61-54 110-37 48 17 154 38 187 28 33-11 97-47 92-122-5-74 30-185-73-250-102-64-104-99-182-130s-179-36-189-75c-11-38-31-88 15-107 47-19 143 0 200-47s165-149 191-189 63-75 42-132c-21-58-78-139-84-181-5-41-66-118-12-147 54-30 113-120 160-138 47-17 167-81 260-118 94-36 202-69 205-100 4-32-74-89-80-137-5-49 0-132 28-171 28-38 30-107-22-140s-210-73-273-97a885 885 0 0 1-198-139c-36-33-64-101-50-172s-31-167 33-191 225-109 245-120c19-10 133-92 232-153 99-60 136-97 186-119 50-23 102-72 82-117-21-45-174-177-191-231-18-54-21-297-32-356-10-59-3-201 52-246 56-45 120-165 212-198s191-66 193-111 21-118 97-111c77 7 141 7 170-49 30-55 52-132 125-146s113-38 151-85c39-47 73-184 78-201 6-18 120-89 160-143 40-53 63-92 155-102s147-50 222-92 134-56 210-111c76-56 125-94 156-160s26-125 42-186c16-60 5-147 5-197 0-51 40-56-12-136"
    ></path>
    <path
      d="M20703 33820c16-92-26-118-17-184s-7-104 19-157 30-97 83-121c54-24 151-90 193-120 42-29 109-74 141-99 31-24 76-52 85-90 8-38-61-92-97-111-37-19-35-77-157-38-121 38-194 62-269 78-74 15-80 87-128 107-49 21-84 59-153 79-69 19-104 81-172 102s-125 68-165 83c-40 16-57 65-127 82-69 17-66 59-159 42s-190-59-273-92-173-58-272-110-158-125-237-153c-78-27-99-10-187-3-89 7-134 42-186 66s-55 101-132 106c-76 5-116 10-173 35-58 24-11 67-120 90-110 22-125 67-222 29s-82-64-197-119c-114-56-217-80-283-120s-50-94-22-130c28-37 43-226 38-275-5-48 7-238 4-290-4-52-26-194 19-227s205-123 224-179 34-177 60-231 49-125 92-153c44-27 73-64 144-88 72-25 112-68 84-92-28-25-70-54-153-68s-187-71-266-109c-78-38-107-78-166-141-59-62-25-215-12-264 12-48 99-111 133-133 35-23 99-99 108-150 9-50 49-170 54-234s43-136 104-162 109-64 83-139c-26-74-14-178-5-239s89-97 63-149c-27-52-40-138-110-186-69-49-66-134-135-174-70-40-186-97-242-146-55-48-76-139-93-192-18-54-30-127-40-153-11-26-2-70-94-115s-120-64-144-92c-24-27-33-99-14-144s31-137-7-140c-38-4-134-9-175-33-42-25-54-61-33-91 21-29 67-83 43-97s-142-21-201-61-96-104-151-97c-56 7-75 47-92 96-18 48-14 111 34 156s72 118 98 132 109 67 133 104c25 36 66 87 33 123-33 37-133 118-168 148-35 29-52 133-40 175s68 153 45 210c-22 57-62 99-88 141-26 41-70 92-77 134-7 41 59 86 31 138-27 52-71 146-102 183-31 36-47 99-45 149s-42 146-37 201c6 56 32 153 11 216s-54 151-96 194c-41 44-14 99-15 125-2 26-44 94-92 113-49 19-148 87-216 108-67 20-107 85-185 81-79-3-139 28-174 40s-43 30-35 68c9 38-19 107-69 109s-134 38-210 35c-77-4-174 3-252-37-78-39-201-76-219-123-17-47-33-48-111-47-78 2-213 25-314 51s-108 88-181 111c-73 22-192 137-241 147-49 11-125 49-125 63s37 57 17 81c-19 25-74 54-132 54-57 0-128-19-116-40 12-20 83-60 75-92-9-31-73-55-179-83s-236-85-293-127c-58-41-146-62-131-90 16-28 77-38 51-61s-85-3-169-26c-83-22-78-15-159 9-82 24-68 90-139 107-71 18-127 47-179 68s-97 92-149 96c-52 3-106-63-120-85-14-23-89-18-148-23s-109-7-128-52 19-109 50-149 52-98 7-131-33-111-24-145c8-35 15-160 3-202-12-41 7-151-10-210s-35-99-44-151 16-54 54-88c38-35 45-75 19-108s-83-120-83-167 19-88 45-132c26-43 26-109 14-144-12-34-45-125 66-154 111-30 153-49 175-92 23-44 52-106 39-165-14-59-66-120-13-144 54-25 58-54 40-87s-102-116-55-148c47-31 28-64 100-48 73 15 150 41 221 48s137-48 167-62c29-14 171 22 213 36s162 40 226 21 123-75 146-114c22-40 67-60 147-77s207-52 214-87c7-34 28-67 99-81s168-25 203-91 31-197 50-243c19-45 0-88 97-111 98-22 233-38 257-69 25-31 72-75 122-90 50-16 153-35 149-58-3-22-7-66-43-57-37 9-181 29-240 35-59 5-166-14-222-63-56-48-111-118-109-172 1-54 12-114 76-149s132-57 151-127c19-69 9-203 26-239 17-37 61-82 113-131 52-48 153-88 177-102s40-26 83-57c42-32 42-62 88-71 46-10 86-25 123-20 38 4 92 11 102-3 9-14 2-88-3-102-5-15-12-72-50-69s-110 9-122 26c-13 17 3 67-33 85-37 18-57 41-102 44-45 4-188-5-209-29-22-24-64-113-91-116-27-4-84 12-121-4s-96-65-131-83-103-81-109-103c-7-21-22-109-31-136s-21-74-35-93c-15-19 53 58 75 74 23 16 63 37 80 22 16-16 33-72 45-94s70-71 108-81c38-9 107-4 128-20 21-15 79-97 104-117 26-20 91-43 144-33s106-16 143 10c36 26 58 152 73 165 14 12 54 19 93 3s104-56 95-94c-9-37-67-97-73-126-6-28 2-110 49-179 47-70 71-111 128-117 58-5 115-8 134-40 19-31 36-107 5-132-31-24-69-50-55-92 13-41 79-104 88-147 9-44-52-139-55-182-4-44 52-184 99-217 46-33 59-25 123-26 64-2 95-21 107-65 13-43 7-71 68-81 61-11 165-26 189-56 25-29 21-66 7-134-14-67-50-48 16-29s99 47 163 21 104-118 214-136c109-17 184-31 218-83s39-94 108-97c70-4 149 33 174-31 24-65-2-141 43-151 45-11 257-2 292 32 34 35 104 113 106 143 1 29-39 123-37 158s38 142 63 146c24 3 97-33 106-72 8-38-6-88-37-142s-5-75 23-109 74-111 73-137c-2-26 93 12 142 13 49 2 160-29 139-55s-87-35-87-52 44-87 129-89c85-1 184-29 213-8 30 20 28 102 54 107s193 11 201 26c9 16-36 47 14 68 51 21 96 85 113 109 17 25 70 54 104 39 35-16 108-65 110-105 1-40-21-55-49-76s38 10 111-14 141-48 153-90-28-90-31-139c-4-49 22-101 71-149 48-49 62-99 125-96 62 4 80 7 121-29s106-129 164-155c57-26 102-40 135-19s104 130 154 155c51 24 134 55 188 79 54 25 104 73 142 98 39 24 84 50 99 22 16-28 26-95 12-123-13-28 40-21 155-35s165 18 224 7 90-19 87 2c-4 21-37 102-28 125 9 22 38 38 55 29 18-8 132-104 152-135 19-31 81-59 135-64s109-9 146-42c36-33 2-88 95-88s207 10 262 43c56 33 61 99 59 142-1 44-41 120-64 143-22 22-36 71-26 97 11 26 56 62 106 45s153-123 186-123 120 43 121 67c2 25 16 117 28 148s-5 146 90 151c96 5 129 28 197 0 67-28 166-55 204-95 39-40 120-65 162-94 42-30 115-115 71-132-43-17-158-66-149-101 8-34 55-111 113-137 57-26 66-101 66-137 0-37-6-174-33-193-28-19-87-8-138 5-50 14-158 44-213 23s-102-28-78-64c24-37 64-101 118-151 54-51 87-125 135-124 49 2 136 16 170-15 35-31 84-115 23-136-61-20-122-100-155-151-33-50 18-172-46-199-65-28-101-38-139-12s-7 100-91 59-222-120-260-158c-38-39-128-111-151-75s-47 134-102 149c-56 16-176 61-249 19-73-41-215-125-262-166-47-42-92-141-165-160s-139-31-160-69c-20-39-24-89-59-110s-125-12-197-21c-73-8-240-29-287-53-47-25-198-77-215-131-18-54-73-107-132-137-59-29-155-69-262-94-108-24-163-97-243-135s-125-68-146-108-19-173-2-206 54-113 2-139-160-71-241-82c-82-10-115-33-124-69-8-37-52-137-34-174 17-36 60-83 67-128s31-71-28-111-112-73-175-99c-62-26-121-61-106-132 16-71 71-163 110-210 38-47 60-118 137-113 76 5 154 14 196 52s69 104 111 106 125-28 113-77c-12-48-57-123-97-144s-77-67-65-137c13-69 58-127 59-196 2-69-34-149-50-189s-22-104 11-136c32-31 90-55 98-132 9-76-36-133-57-184-21-50-47-133 21-194s186-123 253-146c68-22 198-94 219-130 21-37 87-116 19-155-67-38 56-27 73 4s28 116 97 151c70 35 103 94 202 111s184 2 224 33 50 89 116 111c66 23 153 45 203 68 51 22 151 47 129 85-23 38-35 128-87 168s-85 106-82 137c4 32 7 73 87 85 80 13 205 63 247 94 41 31 59 78 31 115-28 36-24 166-37 194-12 28-64 87-137 91-73 3-90 27-132 64-41 36-15 116-22 146-7 29 10 119-35 133s-88 51-83 77-12 76 50 73c63-4 144 3 179-37s45-92 114-97c70-5 139-26 219-19s191 7 209 35c17 27 0 81-28 119-28 39-18 115-40 146-23 31-59 92-59 132s26 106 74 70c49-37 110-125 160-150 51-24 106-19 165-10s132 64 186 54c54-11 87-49 102-11 16 38-1 165 0 196s39 158 51 190c12 31 83 118 116 139 33 20 43 95 90 79 47-15 118-93 153-116 35-22 66-61 129-40s130 68 159 90c30 23 59 96 132 91s118-5 148 15c29 21 93 87 144 73 50-14 116-43 173-60 58-18 164-44 216-47 52-4 26 50 62 85 37 34 80 149 117 126 36-22 119-149 177-184 57-34 76-59 137-48 61 10 123 114 191 153s104 79 158 93 177 45 246 77c70 31 200 123 238 147 38 25 80 78 54 111s-71 141-97 169-77 90 17 95 207-7 233 19 47 89 15 120c-31 31-145 176-135 195s95 74 134 73c38-2 126-11 130-46 3-34-9-40 5-151s47-208 102-232c56-25 176-7 211-52s8-72 92-84c83-12 171-10 191-31 19-21 29-144 55-167 26-22 111-52 120-86 9-35 22-122 61-183 38-60 119-149 139-109 19 40 83 111 57 160s-80 152-70 192c11 40 61 184 101 217s106-5 134-66 83-135 120-184c36-48 41-128 85-175 43-47 125-128 76-163s-146-151-132-210 87-84 151-108 169-90 182-139c14-48-31-175-31-229s-33-212-19-264 66-160 108-163c41-4 185 76 288 66 102-11 141-43 248-35 108 9 111 52 200 75 88 22 113 38 184 2 71-37 97-79 168-73 71 5 233 19 269 52 37 33 115 102 127 61 12-42-14-122-52-169s-83-151-76-200c7-48 20-83 107-83s257 5 325 23c68 17 88 107 127 140 38 33 99-15 80-57-20-42-32-101-72-154-40-54-69-209-144-244-74-34-88-125-92-177-3-52 28-119-3-152s-87-101-45-120c41-19 135 22 206 68 71 45 172 95 226 133s134 113 194 151c61 38 203 137 252 165s68 24 96-17c27-42 137-110 213-129s238 39 288 59c51 21 321 238 374 273 52 35 67 42 109 109 42 68 85 196 94 252 8 56-33 69-11 111 23 42 33 80 49 85s-37-15-104 5c-68 21-99 68-136 101-36 33-87 68-93 127-7 59 53 274 88 281s134 75 215 96c82 20 285 100 328 132 44 31 209 156 209 197 0 42 68 145 38 185-30 39-80 203-106 217-26 13-106 57-128 100-23 44-47 108-44 150 4 41 19 140-15 170-35 29-32 88-125 95-94 7-181 2-256-9s-145-24-229-19c-83 6-210 2-281 59s-56 106-85 164c-30 57-59 140-118 145-59 6-162-13-236 16-75 30-87 102-203 125-117 23-197 83-285 49-89-35-101-98-208-125-108-28-80-68-167-91-87-22-203-7-257 37-54 43-101 140-214 179-112 38-137 19-258 1-122-17-148-73-207-57s-231 90-292 116c-60 26-97 47-78 96s47 177-7 217c-53 40-145 92-210 73-64-19-139-16-170-57-31-42-33-87-87-96-53-9-81-3-76 33 5 37 16 122 61 135 45 14 121 39 149 86 28 46 61 95 63 138 1 44-54 118-16 158s123 59 193 73c69 14 154 30 189 82s45 108 0 160-5 92-89 158c-83 66-156 151-191 184-34 33-86 21-78 66 9 45 42 93 54 139 12 45 43 104-19 135-63 31-163 95-207 108-43 12-67 46-119 17-53-30-66-132-141-144s-132 3-196-37-198-192-207-241 12-198-24-243c-37-45 21-94 15-141-5-46 9-178-53-192-63-14-184-68-221-111-36-44-55-98-5-151 50-54 56-167 42-191-14-25-37-94-77-65-40 30-62 129-125 125-62-3-99-24-154 30-56 54-66 123-111 149-46 26 13 59-125 61-139 2-237-42-327-26-90 15-180 10-232 42-53 31-61 125-153 154-92 30-141 113-210 129-70 15-137 85-177 105-40 21-94 98-33 103 60 5 166 42 178 71 13 30 0 123 16 172s17 165 75 198c57 33 182 118 241 102 59-15 233-64 325-48 92 15 227 59 283 90s172 88 244 80c73-9 162-68 237-42 74 26 60 123 119 189s66 150 183 203c116 54 218 152 333 167 115 16 236-5 229-64s9-127 82-118 55 54 125 92c69 38 92 40 187 50 96 11 150 26 219-7s142-36 167 0c24 37 100 139 107 172s42 169 32 203c-11 35 36 106 83 101s121-9 153 36-9 73 69 96c78 22 163 75 207 104 43 30 121 111 166 136 46 24 171 59 217 81 47 23 129 122 179 132 51 10 49 16 137-7s162 2 183-43 59-96 142-85c83 10 135 74 205 99 69 24 213 88 234 126 21 39 91 127 80 172-10 45-87 196-94 254-7 57 54 192 52 234-1 42 44 181 35 245-8 64-26 213 25 259 50 45 164 67 220 130 56 62 49 173 64 217a343 343 0 0 0 401 201c101-17 207-75 301-42 93 33 210 105 241 82 31-22 120-66 217-61 97 6 139 52 226 77 86 24 248 87 264 139 15 52 43 163 48 203s30 64 75 126c45 63-14 80 52 94s135 104 194 118 184 70 226 124c42 53 71 121 63 189-9 67-20 199-30 250-10 50-35 159-23 198 13 38 28 220 2 258-26 39-40 105-43 164-4 59 64 121 40 163-25 41-28 149-92 177s-155 66-188 94c-33 27-83 107-128 116s-129 16-207-16-132-133-210-125c-78 9-66 56-108 87-41 31-119 120-175 109-55-10-196-97-257-121s-101-75-149-104c-49-30-63-91-111-117-49-26-68-33-91-10-22 23-22 94-12 135 11 42 58 113 68 160s9 118-31 136c-40 17-120 29-143 76-22 47-55 151-106 134-50-18-149-136-192-177-44-42-54-124-110-172-55-49-60-115-83-151a755 755 0 0 0-139-167c-38-23-99-64-172-99s-139-82-185-57c-47 24-25 73-65 114-40 42-62 124-12 143 51 19 261 78 278 116s31 141 16 181c-16 39-59 29-37 121s56 111 42 162c-14 50-56 145-64 182-9 36 46 73 46 73s-33-28-76-47-101-2-155-44c-53-41-130-121-189-151-59-29-189-43-250-48s-93-71-125-116c-31-46-41-132-113-172-71-40-140-144-194-143-54 2-109 45-163 61s-156 33-165 54 48 127 118 128c69 2 174 77 210 110s146 99 168 116c23 17 110 89 111 132 2 43 20 154 13 193-7 38-28 71-103 41-74-29-80-102-163-111-83-8-139 33-262 30-123-4-276-44-354-82s-219-125-287-149c-67-24 12-52-67-75-80-22-250-97-289-128-38-32-179-87-229-77-50 11-173 98-215 118-42 21-141 70-228 94-86 24-154 106-128 129 26 22 115 52 130 40 16-13 61 19 111 12 51-7 134-7 129 29-5 37-28 77-68 70s-181 26-222 38c-42 12-61 71-129 90-67 19-119 71-168 75-49 3-122 28-141 59s-62 125 4 111 127-31 203-14 208 36 236 69 102 179 139 212c36 33 125 77 172 78 47 2 99 58 137 94 38 37 45 87 116 90 71 4 134 49 169 70s203 76 271 108c67 31 109 107 171 130 63 22 165 126 174 165 9 38 16 184 16 231 0 46-13 177 10 222s9 85 68 133c59 49 109 112 173 151 65 40 148 84 249 68 100-15 139 16 208 18 69 1 182 17 234 27 52 11 183 39 228 16s159-69 172-106c12-36 29-82 69-85s125 14 134 35c8 21-44 92 10 95 54 4 167 42 236 28 70-14 216-52 285-28 69 25 181 56 253 38 73-17 233-48 275-79 41-32 71-110 159-108 89 2 268 35 365 47s181 19 250-23c70-41 134-61 189-118 56-57 146-137 209-165s154-17 203-74c48-58 87-247 85-296-2-48 5-284-21-345s-26-172 5-217-3-144 110-165c112-21 257-12 323-33 65-21 262-35 258-69-3-35 35-91 82-103s95-55 120-116c24-61 22-231 13-307-8-77-26-191-46-235-21-43-46-203-37-274s17-271 16-351c-2-80 12-245 26-297s48-128 102-166c54-39 127-47 158-127s37-248 5-318c-31-69-34-180-24-265 11-86 134-162 208-191 75-30 278-134 353-179s208-130 333-183c125-52 141-62 191-114 51-52 9-78 115-99s231-37 234-89c4-52-31-100 2-116s101-10 220-64c120-54 131-31 205-87s141-142 162-201 69-237 80-304c10-68 67-198 17-235-50-36-111-53-70-123s84-147 66-182-85-143-123-202-33-90 19-138c52-49 122-96 71-153-50-58-57-172-34-243 22-71 192-118 215-162 23-43 82-90 80-179-2-88-4-201 0-257 3-55 9-197 10-258 2-61-14-155 44-233s99-158 189-154c90 3 127 52 180 73 54 20 60 64 94 12 35-52 45-59 54-110 9-50-5 45 54 77s52 55 101 19c48-37 86-80 175-130 88-51 172-101 241-108 70-7 144 23 165 54s61 111 92 123 57-16 40-52 33-61 56-47c22 14 132 90 152 122 21 31 46 161 94 161s111-10 158 19c47 30 122 106 195 139s92 106 125 130c33 25 85 115 126 75 42-40 47-139 92-165 46-26 118-23 191-29 73-7 203 10 203-27 0-36-26-95-13-151 12-55 46-74 76-46 30 27 125 123 167 170 41 47 106 69 198 67 92-1 125 18 222-19s179-47 158-97-56-71-71-118c-16-47-61-99 1-130 63-31 117-96 137-148 21-52 7-149 27-206 19-58 12-179 8-228-3-48 31-137-57-161-89-25-172-59-201-108-30-48-4-153-27-219-22-66-20-154-131-204-112-51-162-98-138-169 25-71 23-128-3-160-26-31-115-34-139-76s-31-90 24-120c56-29 148-139 167-186 19-46 26-112 0-151s-69-116-57-163 55-149 88-166c33-18 59-6 130 1 72 7 105-12 141-55 37-44-12-110 56-136 67-26 185 2 236 6 50 3 206 36 278-4 71-40 95 0 125-71 29-71 90-73 156-94s262-42 264-75c1-33-19-62 17-83 37-21 174-76 188-106 13-29 15-194 31-231 15-36 38-45 38-92s-45-182-35-227c11-45 11-104 71-120 61-16 139-52 183-95 43-44 50-146 48-190-1-43-60-142-100-185-40-44-28-56 22-115 51-59 110-146 103-175-7-30-92-54-157-89-64-35-135-83-128-154 7-72 12-235-35-278-47-44-208-111-234-163s-28-99-85-124c-58-24-214-59-236-106-23-46-26-161-59-203-33-41-99-62-103-97-3-35 44-75 75-99s17-120-5-182c-23-63-32-120-16-179s-23-151 17-196 115-85 204-104c88-19 213-71 246-117 33-45 142-159 165-217 23-57 17-140 69-211 53-72 56-101 143-113s123-38 149-98c26-59 16-258-10-322-26-65-58-171-72-221-13-50-52-127-12-184s75-134 56-182c-19-49-44-160-130-183-87-22-153-66-170-104-18-38-6-166-4-222 2-55-116-170-160-198s-85-85-76-156 35-142-28-182c-62-40-156-122-225-165-70-44-145-71-200-137-56-66-104-160-134-221-29-61-68-115-95-115s-68 23-99 30c-32 7 54-56 62-90s5-80-26-106-144-63-156-137c-12-75-33-228-12-309 21-82 41-236 15-282-26-45-81-66-168-106-87-39-299-175-363-225a526 526 0 0 0-269-104c-83 0-203 38-264 81-61 44-130 71-189 92s-66 56-132 92c-66 37-75 75-128 33-54-41-112-128-171-144-59-15-85-2-125 23-40 24-50 88-111 47a961 961 0 0 1-185-174c-25-38-9-101-87-155-78-53-58-128-157-95s-199 137-267 170-121 118-213 130-207-3-270-50c-62-47-272-144-350-205s-163-168-196-212c-33-43-108-170-80-213 27-44 104-203 137-221 33-17 154-38 180-64s51-85 101-95c50-11 132-35 127-82s-4-295-2-372c2-76 50-133 21-201-30-68-43-151-47-219-3-67 63-140 47-173s-182-176-214-202c-31-26-111-133-177-146-66-12-218-107-295-137-76-29-210-73-267-19s-158 129-235 134c-76 5-142 2-147 33s22 107-56 130-158-10-192-50c-35-40-89-61-146-71-58-11-73-75-139-113-66-39-118-78-151-113s-75-89-136-103c-60-13-43-55-140-55s-174-59-217-66c-44-7-82 12-125-30-44-41-35-81-92-111-58-29-101-57-141-106-40-48-45-85 11-93 55-9 164-18 215-30 50-12 94-31 90-69-3-39-38-65-118-106s-139-78-220-115a523 523 0 0 1-216-172c-31-59-43-147-78-205a902 902 0 0 0-222-192c-54-32-182-137-227-174-46-36-79-85-96-156s-12-163-61-207c-48-43-149-116-179-166-29-51-76-191-45-231 32-40 23-71 80-131s118-109 163-100c46 8 134 33 207 52s106 47 174 21c67-26 36-56 112-59 77-4 117-44 77-70s-139-29-169-69c-29-40-66-115-62-139 3-24 132-4 177-24 45-21 109-39 187-7 79 31 178 83 231 111 54 28 197 106 269 116 73 10 134 97 198 106 65 9 99 66 125 38s167-137 238-173c71-37 134-79 195-106 60-28 116-42 116-103s-31-250-57-302-28-146 3-179 97-40 101-99c3-59 2-184-66-217s-148-81-146-133 40-73 75-73c34 0 281 43 331-9 51-52 98-118 75-201-23-84 10-249-9-316-19-68 2-151-31-176-33-24-134-95-201-132-68-36-39-72-45-100-7-28 27-108 95-141s153-24 191 2 130 81 191 88 243-27 269-62 90-80 94-125c3-45 7 64 40 62 33-1 95-27 125-76 29-49 87-108 177-122s134-36 165-83 59-120 128-140 235-80 287-113 92-35 165-12 92 69 88 93c-3 25-40 92-35 132 6 40 4 167-3 210s-28 129 10 158c39 30 167 87 235 103 67 15 130 22 170-37s121-154 161-163 266-62 344-28c78 35 229 118 311 150 81 31 253 144 292 177 38 33 111 121 171 118 61-4 146 1 204 40 57 38 145 83 137 126-9 44-30 106-106 103-77-4-148-16-196 38-49 54-85 179-99 224s-13 191 26 201c38 11 208 42 229 65 21 22 14 118 57 118s130-110 184-146c54-37 77-113 153-132s149-54 174-83c24-30 85-42 145-51 61-8 98-61 150-113s78-69 109-78c31-8 108-8 87 23s-52 194-42 224c11 29 23 73 56 109 33 37 78 78 78 96s-2 97 40 104c41 7 59 5 83-51 24-55 64-88 82-67 17 21 24 100-2 151-26 50-50 159-62 215a2979 2979 0 0 1-124 406c-8 23-3 61 56 33s95-97 123-135 57-47 82-99c24-52 93-139 116-181 23-41 95-80 113-71 17 9 94 51 71 106-23 56-85 144-108 189-22 45-45 118-53 172-9 54-49 226-39 261 11 34-10 128-45 165-34 36-104 128-142 177-38 48-7 123-49 175-41 52-107 196-92 224 16 28 106 21 118-33s65-71 131-89c65-17 88-102 92-196 3-94 31-161 71-215s179-149 276-205c97-55 139-146 198-184s187-160 236-165c48-5 133 11 173 0 40-10-10 61-13 92-4 31-33 104-77 142-43 39-69 136-109 167s-181 144-228 179a881 881 0 0 0-161 179c-31 50-78 160-87 212s-16 144-87 189a441 441 0 0 0-135 177c-18 36 2 149-78 175s-68 68-73 92c-5 25 33 12 78-7s57 12 106-62c48-75 64-120 149-146s149-47 189-115c40-67 105-215 129-284 24-70-42-80 68-125 109-45 244-134 336-181s167-95 224-161c58-66 183-167 228-205s165-96 198-87 81 36 33 83c-49 47-75 89-122 139-47 51-87 143-85 189 2 47-17 160-14 226 4 66-45 153-71 193s-90 156-109 184c-20 28-99 118-103 154-3 37 0 162 26 151 26-10 150-168 172-190 23-23 118-139 125-183 7-43 5-78 76-125 72-47 125-95 195-137 69-42 168-116 191-141 22-24 97-19 97 9s33 116-26 174c-59 57-151 248-187 295-37 47-68 206-86 260-17 54-71 280-72 306-2 26-21 116 19 92s213-118 224-175c10-58 125-200 126-244 2-43 70-185 118-224 49-38 85-45 99-128s-17-194 54-208 148 21 188 59 90 83 83 135-21 179-68 236c-47 58-135 252-161 278s-64 144-82 175c-17 32-62 92-21 91 42-2 96-23 164-87 67-64 81-115 93-101 13 14 14 129 70 108 55-21 57-84 74-117 18-33 77-15 92-27 16-12-15-56 54-73 70-18 115-30 115-89s0-120 2-168 27-101 71-77c43 25 179 101 239 106 61 6 157-33 195-104s5-149 35-196c29-47 76-85 119-146 44-61 151-163 165-199 14-37 52-242 28-292s-9-219-2-250 52-267 32-346-28-151-16-199c12-49 14-177-2-200-15-22-130-59-196-78s-85-92-104-129c-19-36-57-175-28-260 30-85 50-203 38-259-12-55-50-166-95-189-45-22-115-54-177-45-63 9-131 35-177 45-47 11 60-62 95-123s24-231-3-294c-28-62-21-81-94-109s-134-31-160-92-10-252 14-321c24-70 54-99 113-130 59-32 179-58 184-108s-2-240-21-307c-19-68-14-216 24-261 39-45 80-113 151-147 72-35 112-75 178-127 65-52 119-73 163-128 43-56 90-138 76-193s-22-221-19-309c3-89-36-248-95-274-59-27-145-46-139-96 5-50 40-174-9-187-49-14-50-70-149-99-99-30-164-65-162-96s45-94 115-135c69-42 125-84 81-113-43-30 9-113-166-151s-236-16-224-84c12-67 137-74 172-99 34-24 90-24 69-60a330 330 0 0 0-200-125c-99-19-279-45-338-40s-97 36-104 67c-7 32-23 94-59 96-37 2-87 40-59 64 27 25 142 92 147 136 5 43-8 147-55 126-47-20-70-156-122-177s-186-15-243 2-43 76-50 115c-7 38-33 90-71 67-39-22-169-125-238-142-70-17-143 36-191 54-49 17-134 41-162 26-28-16-54-77-22-97s179-79 194-99c16-21-28-72-64-72-37 0-158-131-207-147-48-16-192-78-250-49-57 30-203 103-305 151-103 49-174 146-229 129-56-18-283-64-323-54s-139 52-148 73-61 94-83 116c-23 23-59 14-61-15-2-30-14-63 21-113 35-51 48-96 133-129 86-33 179-61 200-95 21-35 37-75-19-61s-153-17-187-45-54-56-101-56-118 33-165 61-116 101-196 96c-80-6-157-63-219-73-63-11-151 1-184 27s-210 160-247 181c-36 21-67 40-90 69-22 30-62 115-127 112-64-4-105-11-130 33-24 43-69 168-99 154-29-14-76-95-106-135-29-40-69-94-151-146-81-52-213-146-269-158-55-12-109-5-153 33-43 38-105 106-152 109-47 4-110 2-157-28-46-29-119-126-165-142-45-16-85 68-128 90-43 23-144 85-203 84-59-2-83 52-120 79-36 28-47 105-127 73-80-31-210-79-257-102-46-23-52-43-102-14-50 30-165 97-205 129-40 31-90 74-42 97 49 22 181 201 235 234s125 30 149 92c24 63 33 141-14 156-47 16-76-26-120-76-43-50-95-109-171-127-77-17-47-111-131-133-83-23-192-42-206-79-14-36 45-137 47-201 1-64 26-114-52-97-79 17-235 59-285 64-51 5-51 17-172-28-122-45-123-109-201-144-79-34-115-31-211-21-95 11-314 68-319 91-5 22 31 80 59 125s64 109 11 140c-54 32-209 65-257 28-49-36-59-153-127-187s-101 17-148-9-74-31-66-64c9-33 89-44 65-78-25-35-61-40-125-42-65-2-160-14-242 15-81 30-196 58-252 84s-81 118-71 153c11 34 54 90 11 126-44 37-153 124-193 167s-115 125-116 182c-2 58 14 202 34 249 21 46 54 119 35 156-19 36-5 125-2 175 4 51 52 103 16 165s-101 155-167 195c-66 39-90 111-165 92-74-20-206-138-272-191-66-54-202-155-254-202s-62-106-38-189 38-267 54-337c16-69 24-134-57-99-82 35-118 14-141 54s10 148-33 170c-43 23-95 70-137 30s-108-141-155-177c-46-37-83-46-151-32s-165 106-236 106-168-22-194-71-57-154-125-156-125 35-182-12c-58-47-53-191-190-197-137-5-238-3-305-57-68-54-68-156-158-125-91 31-148 148-219 139s-146-50-247-85c-100-35-112-33-194 9-82 41-104 152-177 128s-47-66-142-118c-96-52-259-158-363-194-104-37-212-105-264-125-52-21-66-40-115-45-48-6-104-37-177 0-73 36-123 72-196 45s-113-113-189-96c-77 18-238 97-283 130s-78 87-12 91c66 3 147 20 178 85s59 137 73 194-100 160-50 186 207 87 264 120 94 66 99 123 50 158-2 196-196 85-255 108c-59 22-99 76-87 127 12 50 44 211 52 251 9 40-43 179-45 210-2 32 24 141 40 200s-40 66-33 134c7 67 12 239 12 300s-14 151 24 194c39 44 214 127 155 122s-160 10-170 42c-11 31-14 144 31 185 45 42 163 131 188 179 24 49 19 176 15 214-3 38 16 184-35 192-50 9-147 51-182 91s-41 107-43 173-37 174-101 207-128 113-196 76c-68-36-115-88-189-97-75-9-146-61-164-113-17-52 58-165 56-222s-111-128-187-175c-77-47-209-120-315-157-106-36-225-97-324-93-99 3-143 41-230 21-86-21-116-18-220-65s-219-125-292-156a367 367 0 0 1-170-203c-10-59 11-193 44-254 33-60 64-85 151-74 86 10 151 5 152-40 2-45-27-116-93-141-66-24-289-130-382-142-94-12-176-24-287 31-111 56-142 143-180 137-39-5-26 63-73 120s-66 149-129 109c-62-39-123-154-191-201-67-47-50-146-133-168-84-23-370-177-460-184-91-7-122-63-207 3s-116 165-200 108c-83-58-139-124-253-172-115-49-214-167-280-158s-107 88-180 108c-73 19-193-6-231-28-38-23-177-94-177-94s-19-28-73-66-108-23-160-47-151-83-198-38-47 201-73 210-81-90-158-139c-76-48-168-125-236-132-67-7-196-73-283-107s-156-125-251-131c-96-5-122 11-169 56s-38 115-113 94c-74-21-154-113-227-144-73-32-156-70-193-49-36 21-116 160-160 168-43 9-145 23-168-29s-12-184-109-129-242 167-299 186-146 77-177 104-76 66-118 40-142-156-189-175-139-12-150 28c-10 40 45 130 44 168-2 38-26 82-91 73-64-9-156-54-220-31-64 22-148 26-194 83-47 57-44 174-86 207-41 33-93 83-151 60-57-22-128-118-224-121-95-4-145-26-185-75-40-48-32-73 26-109 57-37 179-118 208-149 30-32 142-56 181-80 38-25 138-78 144-160 5-82 15-219-30-262-45-44-146-143-243-90-97 52-281 41-349 104-68 62-134 191-201 201-68 11-158 14-148-48 11-63 45-105 61-164s40-172 135-227c96-56 243-113 348-163 104-51 114-108 177-167 62-59 203-92 211-163 9-71 54-99 72-139 17-40 31-76-25-78-55-2-147 28-132-23 16-50 134-94 193-128s191-94 226-82 123 106 186 127c62 21 62 69 142 35 80-35 220-138 234-198 14-61-17-229-38-282-21-52-31-158-40-232M9983 22374c-18 11-50 28-67 35-17 6-37 20-52 23s-13 18-1 19c13 1 62 6 74 9 13 2 36 20 50 23s20-26 19-38c-1-11-7-32-4-48 2-15 9-48-19-23z"
    ></path>
    <path
      d="m20070 13796-112 46c-26 10-28 26-50 32-23 6-27 13-1 30s23 34 57 44c34 11 70 30 99 39 29 8 63 22 91 5 29-18 65-34 107-51 42-16 88-27 106-40s-4-38-30-57-73-25-128-36c-55-12-81-35-139-12z"
    ></path>
  </g>
  <g class="map-river-outline" style="fill: none; stroke: rgb(48, 84, 82); stroke-width: 40">
    <path
      d="M13586 2551c-107 62-128 159-229 197-100 39-340 153-430 184-91 32-233 167-302 185-70 17-143 72-178 152s-10 177-72 240-73 149-188 173c-115 25-121 4-236 11s-188 21-292 52-298 87-396 128c-97 42-555 257-604 348-48 90-24 208-62 271-38 62-212 229-243 288s-85 151-75 231c10 79 83 260 66 340s-49 264-17 330c31 66 215 173 173 281-41 108-187 288-225 392-39 105-41 155-25 195 17 40 36 151 40 179 5 29 25 113 20 127s2 60-6 90m9604 8915c-42 17-155 59-191 83-37 24-85 78-115 121-29 44-80 108-133 115-54 7-209 75-216 104-7 30 18 167 35 224s19 134-3 186c-23 52-87 142-42 182s114 113 165 146c50 33 104 96 109 142 5 47 51 124-8 172s-217 193-198 229c19 37 115 95 145 102m1901-1536c-41 38-65 65-75 101-11 37-41 115-46 142-6 27 0 68-20 80-21 12-42 32-67 32"
    ></path>
    <path
      d="M20849 16697c-34 15-105 70-131 59-26-10-101-73-139-93-37-21-82-68-126-61-45 7-173 30-220 51s-105 50-100 86 12 182-13 216-127 76-175 50c-48-27-201-148-260-170-59-21-154-87-198-73-45 13-213 103-220 131"
    ></path>
    <path
      d="M19868 16242c-33 48-58 82-59 117 0 34-25 111-32 141-7 31-7 82-58 101s-147 77-169 88c-22 12-53 57-60 72m4043-713c32 19 37 41 67 31 29-11 178-73 222-83 45-9 206 3 229 15 23 11 77 82 92 117 16 35 25 180 15 207-10 26-23 105-55 131s-106 119-158 161c-52 41-50 121-64 192s-42 275-16 328c12 25 17 70 45 105 34 44 98 87 141 104 76 30 237 128 294 168 58 40 97 194 88 246s-10 151-78 196c-42 28-137 101-247 148-86 37-137 79-171 125-26 35-51 94-67 142-15 49 2 122 19 155 18 32 32 43 63 20 15-11 107-96 192-116 99-23 179 30 197 52 14 16 39 50 40 87 1 47-29 99-62 115-60 29-210 76-268 98-58 23-118 85-105 125 13 41 1 134 66 159s280 66 326 99 92 97 92 139-14 188-49 222-73 94-116 130c-44 37-97 74-78 130 18 55 84 108 125 98 40-11 204-74 246-88s110-41 137-4c27 36 48 174 28 215-20 42-22 244-37 309-16 65 31 229 23 291s16 145 16 179 7 198 10 239c4 40 9 105 16 134s-1 85-4 126c-2 41-14 77-19 115-4 39-27 84-37 112-10 27-6 69-9 96-2 27-9 58-1 79"
    ></path>
    <path
      d="M24113 16446c114-49 269-87 303-157 35-69 39-194 52-251 14-58 20-143 124-193s225-151 328-155c102-3 260 13 349 13 88 0 205-14 243-84 38-69 85-149 75-234-11-85-25-261-30-332s3-118 104-170 99-120 196-151c98-31 197-45 261-102 64-58 111-115 92-191-19-77-26-181 2-207 27-26 111-71 154-90s104-61 104-71m-1760 6715c52-56 133-120 208-158s116-54 198-115c82-60 94-50 118-180s-17-203 35-245 160-73 222-158c63-85 76-149 76-236s-22-110 82-177c104-68 148-89 172-163 24-75 42-193 38-309-3-117 19-238-7-329-26-90-80-166 0-246s247-89 311-149c64-61 73-210 40-283s-78-110 17-148c96-38 238-17 229-135-8-118-90-285 23-294 113-8 323 63 371 115 49 52 44 168 127 146 84-23 73-148 51-210-23-63 5-89 92-117 86-28 232-85 296-154 65-70 92-155 131-202 38-47 55 9 79-86 25-96-45-146 51-209s177-80 198-175c21-96-16-231 43-290s191-142 259-172c68-29 219-99 265-151 47-52 89-146 72-215-18-70-44-120 7-157 50-36 237-74 231-131M1352 24612c-68 51-203 146-295 181s-179 52-267 107a728 728 0 0 1-292 120c-104 12-257 37-337 54m11274 3444c-20-60-42-92-19-134 24-42 40-99 29-150s-63-183-106-225c-42-42-67-109-42-144 26-36 151-128 155-176 3-49-67-215 37-291 104-77 261-101 283-216 23-114 25-249 85-309 61-59 176-154 242-168s260-120 359-168c99-49 241-153 304-181s156-75 182-88m-5231-2325s49-200 31-339c-17-139-8-227 54-276 63-48 23-113 115-118s179-38 231-104 35-127 153-168 187-47 218-124c32-76 54-171 68-232s28-160 123-188c96-27 120-59 226-33s196 77 286 52c91-24 204-60 264-55 61 5 186 35 223 55 36 21 67 23 83 23m-2971-5031c35 54 99 94 176 125s131 61 177 97c45 37 128 139 196 120s107-76 97-162c-10-85 3-229 68-239 64-11 201-24 300-94 99-69 151-208 280-257 128-48 227-83 270-47 44 37 155 87 172 158 18 72 37 193 2 268s-1 345-4 402c-2 32-11 98-11 161 1 51 9 101 26 128 38 61 169 175 220 228 50 54 102 154 124 245s1 239-28 321c-17 48-69 92-110 140-23 27-52 77-66 107-33 72-118 153-99 216 19 62 9 145 89 196 80 50 210 121 244 163s106 95 219 149 172 59 283 47 247-28 314-3c68 24 160 34 202 90 41 56 90 156 78 210s-38 158-87 200c-48 41-114 99-130 156s-56 127-7 187c49 61 57 115 97 188s132 156 111 255-53 163-119 219c-66 55-139 116-139 200 0 83-7 158 47 217 53 59 173 119 213 204s50 120 49 150c-2 29-5 91-17 114"
    ></path>
    <path
      d="M9393 15870c47 90 62 165 106 276 43 111 38 127 116 198s132 127 135 196c4 70 6 164-15 240s-23 128-9 212c12 72 40 185 42 271 1 13-25 75-25 87-7 88 12 96 45 146s126 103 209 138c83 34 163 82 216 148 54 66 83 167 71 231-6 34-25 87-58 125-30 33-74 51-98 77-53 56-83 42-116 111-33 70-33 159-25 255 9 95 24 126 28 206 3 80 2 114-52 147s-129 79-187 104c-36 16-64 46-108 74-26 16-61 30-96 43-44 17-143 67-174 100l-83 91c-33 35-205 132-256 161-18 11-47 14-67 29-33 24-53 61-60 76-10 24-12 42-2 58m1110 2880c26 63-52 118 71 153s143 40 231 85c89 45 125 113 204 113s123 52 237-16c115-67 179-147 269-184 91-36 119-67 211-43s161 43 196 97 24 235 15 306c-8 71 32 107 106 132 75 24 176 57 181 109s17 162 3 214-17 168-19 225c-2 58-24 139 31 132 56-7 190-41 264-45 75-3 176 4 271 43 96 40 252 112 257 172 5 61 76 146 63 214-14 68-9 158-16 210s26 142-12 201-143 205-162 257-41 124-73 170c-31 47-64 134-112 162s-101 78-118 137c-18 59-75 163-63 219 12 55 2 160 69 196 68 36 94 85 211 62 116-22 241-90 324-53 84 36 176 107 198 168 23 61 14 151 23 189 8 38-18 54 40 101s121 75 222 95 139 21 213-19 124-106 124-196-6-168 33-222c38-54 106-134 227-127 122 7 197 110 243 164m-1076-7103c57 68 93 102 154 158s91 99 103 188c12 88 5 157-2 246s0 196 5 274 11 212 19 297-36 202 30 290c66 89 45 141 180 203 136 63 257 155 335 186 79 31 197 69 209 128 12 60-25 181-87 249a563 563 0 0 0-142 241c-14 78-59 214-2 309 57 96 113 222 226 273 112 50 189 111 345 185s266 160 375 202 188 104 262 149c75 45 241 181 316 191 75 11 113 24 179 37 66 12 54 27 153 99 99 71 212 144 225 189 14 45 26 151-1 257-28 106 7 156-7 271-14 114 0 100 5 163s29 69 19 159c-10 91-36 136-26 183s0 92 69 137"
    ></path>
    <path
      d="M11362 20418c112-24 163-43 246-93 83-51 120-113 191-157 71-43 160-67 189-147 30-80 32-176 97-248s113-181 217-188c105-7 152-21 219 37 68 57 134 142 224 164 90 23 179 40 245 18s165-106 196-54m2045-519c59 31 92 43 157 114s102 108 118 190c15 81 92 149 0 199a866 866 0 0 0-252 243c-44 70-49 117-12 172s114 103 139 165c24 63 81 123 8 179s-246 132-304 151c-57 19-116 28-137 92-20 64 4 191-5 241-9 51-62 134-132 184-69 51-179 136-187 198-9 63-6 139 34 200s52 132 186 182c134 51 245 113 294 170 48 58 67 155 81 209s33 123 80 166c47 44 120 75 137 138 18 62 52 140 52 173s-10 101-10 101m309-3861c75 40 88 68 165 109s135 52 135 103c0 50 12 112 33 180s16 169 78 217c63 49 144 110 228 144 83 35 180 61 210 122 29 61 40 94 40 182 0 89-33 287-30 358 4 71 16 165 108 196s238 140 319 179 191 119 233 152 165 148 194 245c30 98 15 197 67 270 15 21 42 46 68 64 82 59 200 109 253 149 69 52 116 45 159 170 28 81 44 161 59 226 9 36 16 59 45 80 82 59 410 194 518 258 107 65 154 132 238 177 83 46 170 61 222 63s92 28 69 78c-22 50-80 137-151 188-71 50-128 104-199 99-72-6-195-23-219 27-24 51-12 49 5 106 17 58 37 108 4 167s-52 111-40 149-14 96-49 106c-35 11-87 40-106 83-19 44-26 137 50 179"
    ></path>
    <path
      d="M17637 17536c43 69 59 93 114 191 56 97 53 172 100 249 47 76 42 95 110 196 67 101 137 195 130 246-7 50-25 111-74 151s-169 84-241 113c-71 30-115 59-126 122-15 82 29 119 67 153 52 45 106 80 112 165 4 79 14 155-8 222s-20 133-97 177a428 428 0 0 0-151 151c-27 45-52 121-36 174 16 52-5 104 14 184s14 133 17 215c4 81 24 151-21 217s-106 170-161 196c-56 26-109 71-93 99m-5325-10211c-85 31-107 36-146 97-38 61-66 111-53 184 12 73 12 97 97 167 85 69 156 125 158 174 2 48-52 140-9 225 44 85 85 148 172 195s137 41 135 135c-1 94-5 233-19 288s-62 129-36 190c26 60 71 105 68 182-4 76-89 258-52 357 36 99 38 188 114 259s99 125 215 167c117 41 236 62 335 26 99-37 224-45 341-23 116 23 236 87 323 134 86 47 227 78 276 151 48 73 100 108 73 170-28 63-113 134-165 179s-49 198-58 283c-8 85-41 233-15 288s94 118 80 170-89 110-68 190c21 79-37 93 97 130 134 36 264 34 320 26 55-9 116-70 246-37s148 25 193 117 40 213 40 281-28 158-7 262 15 175 22 248-14 176-20 247c-7 71-70 166-26 222 43 56 111 151 217 165 105 14 319-36 395-42 77-5 158-36 214 37s108 144 90 198c-17 53-19 255-45 312s-2 123 35 186c36 62 43 92 179 113 135 21 328-89 406-136s168-144 259-149c90-5 246-56 270-156 25-101 36-249 26-373-11-123-48-224 8-306s180-108 262-95c83 13 94 157 98 236 1 41 49 90 105 122 51 31 86 71 134 95 109 55 182 104 305 79 123-24 240-70 343-138"
    ></path>
    <path
      d="M10918 14697c-108 57-201 94-285 148-83 53-81 43-76 126 5 84 21 151 69 249s51 217 188 208 264-102 368-89c104 14 186 46 264 92s213 99 290 94c76-5 185-88 310-137s264-94 290-170c26-77 75-191 54-248-21-58-121-110-196-146-75-37-158-87-125-172s-36-266 83-278c120-12 191-57 264-102s84-129 198-115c115 14 169 99 252 123 83 25 118-20 153-81 34-61 107-189 159-172s143 76 191 128c49 52 77 164 148 179 71 16 175 12 222 63"
    ></path>
    <path
      d="M11682 13975c-64 33-116 22-104 83s78 113 109 170c31 58 14 129 31 202 18 73 21 146 94 191s226 67 259 100m3106-1454c73 48 76 112 180 130 104 17 193 26 243 62 51 37 77 106 170 146 94 40 243 82 282 122 38 39 97 105 180 156 84 50 117 95 238 107 122 13 177 61 252 117 74 55 154 109 234 135s193 33 212 87 47 139-7 179-82 38-207 83-210 80-283 129c-72 48-130 119-250 170a484 484 0 0 0-213 139c-59 64-24 166-130 166s-132-15-219 39-75 121-96 184c-20 62 60 144-46 185-106 42-205 84-209 125-3 42-5 70 65 113 69 44 140 21 258 75s228 104 262 151c35 47 92 132 151 186 59 53 169 107 235 93s127-14 146-53m593-11141c-81 90-74 95-205 139-130 43-260 17-307 113-47 95-94 236 12 331 106 96 264 148 268 254 3 106-25 220-42 340s-10 280-2 344c9 64 19 177-45 229s-215 208-213 255c1 47 24 158-42 195-66 36-158 123-168 182-11 59-61 106 33 163 93 57 175 134 175 182 0 49-77 141-54 259s57 167 33 260c-24 94-40 141-26 233s-3 271-2 335c2 64 25 184 28 224"
    ></path>
    <path
      d="M14309 7747c92 59 127 122 207 184s168 122 255 160 137 61 198 35 132-118 238-92 255 87 319 127c65 40 155 111 254 171 99 61 144 122 290 86 146-37 206-61 286-39 67 19 224 77 279 137m-1934-2595c80 61 73 83 149 142 77 59 122 30 181 111s94 146 175 190c82 43 215 64 304 33 89-32 273-110 337-85 64 24 137 5 175 86 38 82 57 181 71 257 14 77 37 148 113 209 77 60 123 121 207 156 83 35 161 102 189 115 28 12 76-6 83 55m2530-2057c28 83 35 130 62 219 28 88 42 192 13 260-30 68-80 132-77 248 4 117 33 203 42 299 8 95 68 210 41 292-26 81-34 159-53 256s24 191-63 244c-87 52-212 85-212 170s-36 262-85 312c-48 51-165 108-184 215-19 108-66 63-8 157s123 175 185 229c63 54 111 43 117 132 5 88 27 281-4 394s40 154-71 215-132 141-231 167"
    ></path>
    <path
      d="M20491 6003c-101-44-59-39-139-2-80 36-208 88-269 132-61 43-135 114-221 165-85 50-201 147-291 172-91 24-156 46-212 64-56 17-83 31-92 50m-1451 4626c-9 54-26 99-32 179-5 80-31 160 14 287 45 126 16 243 162 219 146-25 389-103 474-153 85-51 277-254 397-259s163-45 243 17c80 63 155 96 167 184 12 89 38 145-24 233-63 89-197 241-247 306-50 64-175 260-206 331s-80 139-72 210c9 71 26 150 66 188s110 182 299 212c189 29 340-72 453-61 113 10 254 17 254 71s39 167-40 201-164 68-204 165c-39 98-52 157-12 214s75 64 134 78 116 18 161 25"
    ></path>
    <path
      d="M16002 12737c106 39 101 119 262 109 162-10 228-52 356-40 129 12 210 73 271 115 61 41 177 76 243 119 66 44 96 85 231 144 136 59 163 79 271 46s135-68 229-61l219 14c141 9 144-21 248-65 104-43 186-102 240-118 54-15 142-55 208-10m1422-3177c92 78 137 69 182 170s-15 158 87 221c102 62 241 142 257 224 16 81-47 180 12 274s191 173 215 245c25 71 73 139 33 217a646 646 0 0 1-215 222c-64 31-239 94-274 146s-92 198-122 276c-29 78-92 179-220 257-129 78-249 113-281 194-33 82-53 136-39 215 14 80 19 138 19 219s20 160-36 195c-56 34-184 116-224 137s-99 66-89 74m1293-5411 18-27c31-42 74-75 120-73 55 1 149-3 201-48 53-46 108-125 153-126 45-2 156 5 220 123s54 255 38 328-23 201 14 313c15 46 35 115 84 169 67 75 171 130 222 149 90 33 174 84 320 138s184 129 307 179 230 114 319 173c42 28 90 55 127 83 40 30 63 62 67 100 4 33-17 82-17 120-1 45 17 79 63 112 85 62 129 118 251 180s191 160 260 151c70-8 278-111 379-92s293 150 396 221c102 71 203 139 295 179 92 39 130 78 213 138 84 61 143 165 231 193 89 28 167 52 254 109 87 58 161 124 253 167 92 44 275 82 347 126s211 92 227 177c15 85-13 158-36 258-11 52-23 66-24 110 0 39 17 98 30 136 9 28 27 46 36 75 13 42 15 95 7 122-14 45-35 99-16 210s54 253 32 326a1053 1053 0 0 0-10 472c17 85 43 176-25 216s-195-35-234-89c-40-54-68-203-65-273 4-69-36-158-80-180-43-23-194-24-196 26-1 50-26 229-12 316s31 186 16 314c-16 129 10 219-85 297-96 78-193 194-289 135-95-59-211-302-246-406s-151-239-179-304c-28-64-61-234-114-286-54-52-139-108-230-99-90 9-288 56-305 137-18 82-66 294-21 370s76 196 38 234-97 25-125-14-61-121-109-112c-49 8-123 93-117 135 7 42 60 153 35 194-24 42-184 198-245 184-60-13-184-161-305-138-122 22-212 59-240 114-28 56-57 141-52 167"
    ></path>
    <path
      d="M27435 6831c-79 11-192-12-257 9-64 21-88 101-121 167s-66 133-129 175c-62 42-140 31-159 142s43 174-61 249c-104 74-247 152-250 223-3 72 14 186 2 289-12 102-5 234-44 293-38 59-47 229-161 217-115-12-193-71-302-102-110-32-255 45-325 86-69 42-283 103-312 172-30 70-6 157-12 233-7 76-56 146-44 210s40 120 23 168-127 151-203 171c-77 19-179 81-252 126s-117 91-123 150c-7 59-54 227-6 265"
    ></path>
    <path
      d="M28139 7656c-29 57-42 125-95 157s-122 32-179 83c-56 51-72 140-141 168-70 28-200 40-230 10-31-29-67-173-133-166-66 6-155 93-189 130-35 36-153 25-224-8s-92-89-162-79-148 93-213 121c-64 27-114 78-120 103m1997 478c116 21 193 71 276 110 84 38 189 57 240 112 50 56 47 103 64 195s54 200-19 243-175 61-201 146-32 321-120 354c-89 33-398 144-436 220-38 77-83 151-87 233-3 82 5 196-101 241-84 36-239 120-313 178-19 15-35 50-40 62-11 27-26 63-32 119-4 43 1 92-10 129a410 410 0 0 1-183 205c-60 31-119 47-232 19-50-12-97-41-143-52-58-15-114-10-171 10-102 34-207 110-306 171-99 60-181 112-238 142s-187 92-226 170m5488 1118c87 64 177 49 231 117 54 67 71 85 71 163s-41 215-43 293 22 163 9 274c-14 112-21 278-33 342-13 65 27 122 14 202-14 80-28 127 12 208 40 82 41 123 12 221-30 97-80 213-80 284 0 72-31 98 54 105s239 10 278 97c38 87-4 248 88 293s189 77 207 143c17 66 7 241 17 319 3 19 18 48 20 66 8 56 0 95-2 142-2 61-12 98-11 178 1 81-10 110 8 190 18 79 28 106 100 182 44 46 139 119 202 189 39 43 62 87 63 117 5 80-3 156-67 209-14 11-24 24-40 34-61 40-142 75-185 130-46 57-34 193-95 313-29 57-85 99-125 124-23 14-102 27-178 16-77-12-152-48-177-61-90-46-166-100-338-199-17-10-81-58-90-64-97-64-246-172-326-217s-153-96-235-73c-81 23-231 118-255 181-24 62-102 138-43 217 59 78 146 145 218 217 73 71 106 102 96 187s-73 188-12 299 54 180 151 251 288 98 378 183c91 85 99 113 82 206s-17 207-118 256c-101 48-182 105-179 189 3 83-14 205 85 272 99 68 203 138 234 231s58 150 0 221-232 199-354 170c-121-30-498-177-600-255-103-78-219-172-294-212-74-40-150-92-170-95"
    ></path>
    <path
      d="M32711 19132c-118 68-223 75-217 172 5 98 13 191-18 254s-118 114-208 146a892 892 0 0 0-250 154c-30 31-160 73-205 82-45 8-87 12-134 54m-1765-2947c3 127-61 198-26 276 34 78 106 165 205 188 98 22 152 108 230 135 79 28 190 33 231 87 42 54 52 158 160 182 108 25 137 16 193 42 55 26 100 16 106 63m3830-5101c-33 64-51 104-162 132s-160 41-227 99c-68 57-157 158-245 128-89-29-184-123-240-133-55-11-170 8-232 62s-98 80-82 163c16 84 56 177 28 273-28 95 22 229-61 276s-189 101-214 193c-24 92-24 258-85 295-60 36-204 152-222 227-17 75-24 264-106 314-81 51-104 129-144 210-40 82-36 191-121 233s-247 87-249 123m-3192 15613c-19-66-23-92-77-130s-121-66-55-115 187-121 194-171c7-51 29-145 12-178-16-33-45-104-78-124m1808-9c-68 33-62 54-135 88-73 35-90 85-192 44-101-42-226-111-307-139-81-29-154-80-213-71-59 8-199 66-252 94-52 29-180 103-262 100-81-2-233-32-279-51-43-18-129-32-159-54l-35-23m5851-15124c35 96 62 115 2 184-61 70-92 87-47 171 45 83 22 154 57 241s99 161 3 215c-95 54-338 111-312 182 26 72 99 105 215 164 117 59 328 159 417 199 88 40 210 52 205 143-5 90 31 208 8 293-22 85 42 75 7 231-34 156-19 193 35 240 54 46 323 100 396 135s184 108 248 165 202 147 196 238c-5 90-26 241-128 297-102 55-342 151-418 192-77 42-290 125-349 162-59 36-261 165-271 232-11 68 8 360 1 426-6 66-88 194 54 238 143 43 410 138 446 210 37 71 122 208 122 295s57 210 0 304-89 198-200 224-246 26-342 17c-95-9-264 33-342 42-78 8-137-21-238-32-100-10-277 32-371 96s-255 160-276 239c-21 80 2 202-61 271s-179 106-92 183c87 76 193 133 196 224 4 90 9 194-93 248-103 54-184 128-209 189-24 61-40 64-40 181 0 116-7 185 148 230 154 46 358 160 429 157 71-4 211-37 359-9s328 73 391 141 130 102 119 227c-10 125 6 136-83 264-88 128-161 238-142 323s-9 139 71 174c80 34 71 36 189 88s221 120 240 172c15 42 34 108 41 166l3 66"
    ></path>
    <path
      d="M31239 21182c47 88 94 89 90 170-3 82-62 151 16 217s139 68 251 122c113 53 216 93 280 159s95 103 76 214-36 335-19 432c18 97 4 254 44 321 40 68 5 136 123 177 118 42 344 14 406 7s228 25 302 87c75 63 255 129 344 189 88 61 208 108 304 176 95 67 264 69 416 64 153-5 384 33 464 14s210-90 283-75c73 16 349 144 392 181 44 36 137 104 167 140"
    ></path>
    <path
      d="M30496 23149c83 45 66 108 206 109 141 2 157-26 259-80s215-119 295-163c80-43 99-85 182-104 84-19 120-59 252-61 132-1 273 16 316 56m6044-4167c-113 59-165 130-290 134-125 3-164-21-282-44-118-22-205-74-305-8-101 66-12 168-169 201-156 33-333 94-395 144-63 51-73 65-72 157 2 92 85 170-31 260s-312 175-359 210-103 71-113 115c-11 43-75 45-59 111m2852-492c-132 2-109-33-203-36-94-4-111-12-196 38s-161 108-184 179-14 123 45 193c59 69 163 126 203 170 40 43 61 100 59 182-1 82 35 198-31 231s-161 99-196 165-30 213-46 272c-6 23-4 59-8 96-7 61-21 129-37 167-26 60-36 120-170 221-135 102-265 190-302 220-36 29-8 167-113 213s-108-34-263-10c-156 23-198 62-313 128-114 66-112 58-220 133-107 75-146 52-219 78s-96 32-99 143c-4 111 10 214-38 287-49 73-143 120-254 182-111 63-212 148-295 186s-134 75-220 111c-87 36-214 130-271 146-57 15-111 28-146 62m3807-2807c-73 31-153 92-201 127-49 35-177 128-224 158-47 29-122 102-160 165s-30 173-114 225c-43 25-90 46-130 72s-74 57-103 76m-4258-924c-2 57-39 53 5 140 45 87 64 117 89 192s35 120 88 173 96 149 102 177m2555-3726c-15 56-11 117-71 147-60 29-106 85-183 102-77 18-146 42-172 78-25 37-60 99-49 121m-403-3273c109 51 99 115 201 169 103 54 32 94 174 47s201-110 307-71c106 38 73 112 197 138 123 26 213 21 232 82s71 205 78 271 9 187 96 139c87-49 154-203 215-229 61-27 325-188 439-207 115-19 289-64 308-129 19-64 107-144 173-159 66-16 146-38 216-31 69 6 159 10 227 29s182-6 243-46M35700 3719c-23 38-40 85-21 132s38 115-9 176c-47 60-55 118-142 163s-125 55-129 130c-3 75 4 213-55 274s-111 127-196 158-171 57-216 97-154 120-142 165 2 134 31 197 45 92 55 139c9 47 18 138 12 164m5525 1871c95-42 151-123 259-161 108-39 109-89 213-115 105-26 223-85 223-149 0-65 38-205-21-264s-188-228-198-268 5-173 12-203m608 202c78-65 116-139 189-108s141 97 210 129c69 31 151 48 135-28-15-77-111-207-86-261 24-54 59-130 152-137 94-7 198-31 250-55s51-40 96-61m-3016-3814c-26 45-93 79-100 147s66 96 86 156c21 61 26 115-27 145-54 29-110 10-183 3s-139-36-177 10c-38 47-61 153-111 174s-163 21-193-42M27786 4532c62 31 93 51 178 32s177-63 187-143c11-79 24-246 85-249 61-4 177 20 210 85 33 64 16 154 16 250 0 95 3 234-35 291-38 58-61 125 14 162 75 36 193 100 264 114s134-55 215-97c82-42 125-50 136 7 10 57 10 163 1 234s18 124-100 153c-118 30-342 97-401 146s-134 108-134 168c0 61-102 238 9 235 111-4 218-125 270-108 53 17 325 28 360 71 35 44 7 141-21 200s-82 121-17 179c64 57 187 100 224 118 36 17 71 22 73 57M8617 14501c-51-95-115-141-183-172s-216-88-279-122c-62-35-113-68-124-100s-47-184 6-267c52-83 46-276-2-330-49-54-96-144-183-139-86 5-270 19-321 80-50 61-40 240-85 292s-123 152-203 154-94 30-220-33c-127-62-285-104-344-180-59-77-111-290-146-358s-68-142-182-175c-115-33-271-75-320-132-48-58-69-129-34-205 34-77 71-219 8-238-62-19-251-76-305-113-54-36-110-161-188-212-78-50-99 25-206-12-108-36-138-14-144-81-7-68 24-139-63-151-87-13-212 15-271-47a298 298 0 0 0-248-106c-111 8-245 97-326 71a518 518 0 0 1-228-167c-22-47-55-192-95-264-40-71-186-191-250-239-65-49-197-101-210-141-14-40-61-168-61-205"
    ></path>
    <path
      d="M7469 8079c-51 68-52 35-52 172s10 228-19 316c-30 89 7 177-58 242-77 77-118 154-210 152-36-1-103-17-148-47-30-20-68-57-113-102-23-24-36-46-61-63-74-51-157-78-217-76-43 1-155 27-252 69-81 35-155 100-202 124-57 29-90 84-110 125-18 33-17 56-29 98-13 48-20 100-29 151-9 50-21 98-7 154 28 111 90 274 62 337s7 197-85 191c-92-7-189-120-271-106-81 14-199 81-222 154-22 73-62 156-38 228 24 71 83 189 40 317-43 129-90 318-82 384 9 66 33 148 40 217s-26 151-102 186c-77 34-139 83-148 153-8 69 11 190-36 248-47 57-104 151-172 165s-101 67-174 41m27246 17885c-19-65-83-131-26-207 57-75 95-53 133-142 38-88-18-90 59-166s126-170 130-209m1633-2325c-79 60-217 140-256 159-39 18-91 13-70 73s81 135 83 213c3 78 29 175-57 172s-206-52-276-42c-70 11-117 86-125 112s-62 99-135 78m-2732-1722c-26-44-63-85-67-125-3-41-11-102 38-141 50-39 59-82 133-78s146 1 177 33c31 31 21 155 86 158 65 4 137-62 176-89 39-28 83-76 105-43 22 32 42 105 37 165s18 129 95 147 135 64 189 81c53 17 105 5 91 57-15 52-95 119-107 155-12 37-60 152 16 164 75 12 96-8 171-53 76-46 221-181 288-206 68-25 106-66 143-10 38 56 53 131 24 170s-116 156-190 190-126 52-117 91c9 40 36 76 127 75 91-2 246 2 311-19 66-20 188-138 239-160s126-74 152-54c26 19 78 66 52 108-26 41-148 127-164 170s-82 115-174 117c-93 3-219-22-263 10-45 31-66 72-58 104 8 31 48 92 82 133s48 84 65 108m-14829-5326c-4 63-26 159-97 175-72 15-201 18-246 52-46 34-90 109-121 131-32 22-184 112-228 141-45 28-188 99-232 114-44 16-103 81-110 101-6 19-52 157-74 207a826 826 0 0 1-165 199c-33 19-132 78-125 125m20079 6900c26-17 13-39 39-40 25-1 50-3 49-9-1-5 19-39 8-56M23625 6944c0 48 12 119 48 145 37 26 167 84 198 131 32 46 45 232 35 291s-59 122-118 160-148 59-163 106c-16 47-44 47-47 116-4 70 22 158-30 212s-107 94-152 132-92 28-99 108c-7 79 29 316 27 376-1 61 8 134-14 212-7 24-14 53-10 84 11 66 46 137 49 173 2 36 5 56 2 77-2 21-24 80-27 106s-25 92-23 107c2 14-17 81 2 97"
    ></path>
  </g>
  <g class="map-river-line" style="fill: none; stroke: rgb(90, 118, 117); stroke-width: 16">
    <path
      d="M13586 2551c-107 62-128 159-229 197-100 39-340 153-430 184-91 32-233 167-302 185-70 17-143 72-178 152s-10 177-72 240-73 149-188 173c-115 25-121 4-236 11s-188 21-292 52-298 87-396 128c-97 42-555 257-604 348-48 90-24 208-62 271-38 62-212 229-243 288s-85 151-75 231c10 79 83 260 66 340s-49 264-17 330c31 66 215 173 173 281-41 108-187 288-225 392-39 105-41 155-25 195 17 40 36 151 40 179 5 29 25 113 20 127-3 11 0 39-2 66l-27 145m9738 8746c-20 12-125 53-133 57-51 20-138 53-169 74-37 24-85 78-115 121-29 44-80 108-133 115-54 7-209 75-216 104-7 30 18 167 35 224s19 134-3 186c-23 52-87 142-42 182s114 113 165 146c50 33 104 96 109 142 5 47 51 124-8 172s-217 193-198 229c17 34 100 86 137 99 1 1 29 4 46 18 16 13 29 49 30 49m1833-1600c-41 38-65 65-75 101-11 37-41 115-46 142-6 27 0 68-20 80-16 10-32 23-50 29-3 1-29 2-54 14-24 12-46 35-49 35"
    ></path>
    <path
      d="m20872 16679-26 20-4 2c-36 18-99 65-124 55-26-10-101-73-139-93-37-21-82-68-126-61-45 7-173 30-220 51s-105 50-100 86 12 182-13 216-127 76-175 50c-48-27-201-148-260-170-59-21-154-87-198-73-45 13-213 103-220 131"
    ></path>
    <path
      d="M19868 16242c-33 48-58 82-59 117 0 34-25 111-32 141-7 31-7 82-58 101s-147 77-169 88c-22 12-53 57-60 72m4623-315c114-49 269-87 303-157 35-69 39-194 52-251 14-58 20-143 124-193s225-151 328-155c102-3 260 13 349 13 88 0 205-14 243-84 38-69 85-149 75-234-11-85-25-261-30-332s3-118 104-170 99-120 196-151c98-31 197-45 261-102 64-58 111-115 92-191-19-77-26-181 2-207 27-26 111-71 154-90s104-61 104-71m-1760 6715c52-56 133-120 208-158s116-54 198-115c82-60 94-50 118-180s-17-203 35-245 160-73 222-158c63-85 76-149 76-236s-22-110 82-177c104-68 148-89 172-163 24-75 42-193 38-309-3-117 19-238-7-329-26-90-80-166 0-246s247-89 311-149c64-61 73-210 40-283s-78-110 17-148c96-38 238-17 229-135-8-118-90-285 23-294 113-8 323 63 371 115 49 52 44 168 127 146 84-23 73-148 51-210-23-63 5-89 92-117 86-28 232-85 296-154 65-70 92-155 131-202 38-47 55 9 79-86 25-96-45-146 51-209s177-80 198-175c21-96-16-231 43-290s191-142 259-172c68-29 219-99 265-151 47-52 89-146 72-215-18-70-44-120 7-157 50-36 237-74 231-131M1352 24612c-68 51-203 146-295 181s-179 52-267 107a728 728 0 0 1-292 120c-104 12-257 37-337 54m11298 3559a486 486 0 0 0-26-122c-19-56-39-87-17-127 24-42 40-99 29-150s-63-183-106-225c-42-42-67-109-42-144 26-36 151-128 155-176 3-49-67-215 37-291 104-77 261-101 283-215 23-115 25-250 85-310 61-59 176-154 242-168s260-120 359-168c99-49 241-153 304-181s156-75 182-88m-5231-2325s49-200 31-339c-17-139-8-227 54-276 63-48 23-113 115-118s179-38 231-104 35-127 153-168 187-47 218-124c32-76 54-171 68-232s28-160 123-188c96-27 120-59 226-33s196 77 286 52c91-24 204-60 264-55 61 5 186 35 223 55 29 17 54 21 71 23 5 0 37 9 40 9"
    ></path>
    <path
      d="m10025 22525 18 33c17 59-50 112 68 145 124 35 143 40 231 85 89 45 125 113 204 113s123 52 237-16c115-67 179-147 269-184 91-36 119-67 211-43s161 43 196 97 24 235 15 306c-8 71 32 107 106 132 75 24 176 57 181 109s17 162 3 214-17 168-19 225c-2 58-24 139 31 132 56-7 190-41 264-45 75-3 176 4 271 43 96 40 252 112 257 172 5 61 76 146 63 214-14 68-9 158-16 210s26 142-12 201-143 205-162 257-41 124-73 170c-31 47-64 134-112 162s-101 78-118 137c-18 59-75 163-63 219 12 55 2 160 69 196 68 36 94 85 211 62 116-22 241-90 324-53 84 36 176 107 198 168 23 61 14 151 23 189 8 39-18 54 40 101s121 75 222 95 139 21 213-19 124-106 124-196-6-168 33-222c38-54 106-134 227-127 116 7 182 92 235 155l45 94m-1113-7188c57 68 93 102 154 158s91 99 103 188c12 88 5 157-2 246s0 196 5 274 11 212 19 297-36 202 30 290c66 89 45 141 180 203 136 63 257 155 335 186 79 31 197 69 209 128 12 60-25 181-87 249a563 563 0 0 0-142 241c-14 78-59 214-2 309 57 96 113 222 226 273 112 50 189 111 345 185s266 160 375 202 188 104 262 149c75 45 241 181 316 191 75 11 113 24 179 37 66 12 54 27 153 99 99 71 212 144 225 189 14 45 26 151-1 257-28 106 7 156-7 271-14 114 0 100 5 163s29 69 19 159c-10 91-36 136-26 183 10 43 1 85 55 127 2 1 24 17 35 37 11 19 11 41 14 43"
    ></path>
    <path
      d="M11362 20418c112-24 163-43 246-93 83-51 120-113 191-157 71-43 160-67 189-147 30-80 32-176 97-248s113-181 217-188c105-7 152-21 219 37 68 57 134 142 224 164 90 23 179 40 245 18s165-106 196-54m2045-519c59 31 92 43 157 114s102 108 118 190c15 81 92 149 0 199a866 866 0 0 0-252 243c-44 70-49 117-12 172s114 103 139 165c24 63 81 123 8 179s-246 132-304 151c-57 19-116 28-137 92-20 64 4 191-5 241-9 51-62 134-132 184-69 51-179 136-187 198-9 63-6 139 34 200s52 132 186 182c134 51 245 113 294 170 48 58 67 155 81 209s33 123 80 166c47 44 120 75 137 138 18 62 52 140 52 173s-10 101-10 101m-4560-8001c-108 57-201 94-285 148-83 53-81 43-76 126 5 84 21 151 69 249s51 217 188 208 264-102 368-89c104 14 186 46 264 92s213 99 290 94c76-5 185-88 310-137s264-94 290-170c26-77 75-191 54-248-21-58-121-110-196-146-75-37-158-87-125-172s-36-266 83-278c120-12 191-57 264-102s84-129 198-115c115 14 169 99 252 123 83 25 118-20 153-81 34-61 107-189 159-172s143 76 191 128c49 52 77 164 148 179 71 16 175 12 222 63"
    ></path>
    <path
      d="M11682 13975c-64 33-116 22-104 83s78 113 109 170c31 58 14 129 31 202 18 73 21 146 94 191s226 67 259 100m5147-9569c-81 90-74 95-205 139-130 43-260 17-307 113-47 95-94 236 12 331 106 96 264 148 268 254 3 106-25 220-42 340s-10 280-2 344c9 64 19 177-45 229s-215 208-213 255c1 47 24 158-42 195-66 36-158 123-168 182-11 59-61 106 33 163 93 57 175 134 175 182 0 49-77 141-54 259s57 167 33 260c-24 94-40 141-26 233s-3 271-2 335c2 59 21 163 27 212l-3 68"
    ></path>
    <path
      d="M14309 7747c92 59 127 122 207 184s168 122 255 160 137 61 198 35 132-118 238-92 255 87 319 127c65 40 155 111 254 171 99 61 144 122 290 86 146-37 206-61 286-39 67 19 225 77 279 137m-1934-2595c80 61 73 83 149 142 77 59 122 30 181 111s94 146 175 190c82 43 215 64 304 33 89-32 273-110 337-85 64 24 137 5 175 86 38 82 57 181 71 257 14 77 37 148 113 209 77 60 123 121 207 156 83 35 161 102 189 115 28 12 76-6 83 55m2530-2057c28 83 35 130 62 219 28 88 42 192 13 260-30 68-80 132-77 248 4 117 33 203 42 299 8 95 68 210 41 292-26 81-34 159-53 256s24 191-63 244c-87 52-212 85-212 170s-36 262-85 312c-48 51-165 108-184 215-19 108-66 63-8 157s123 175 185 229c63 54 111 43 117 132 5 88 27 281-4 394s40 154-71 215c-104 57-129 131-214 162l-45 20c-8 3-59 43-83 67"
    ></path>
    <path
      d="M20491 6003c-101-44-59-39-139-2-80 36-208 88-269 132-61 43-135 114-221 165-85 50-201 147-291 172-91 24-156 46-212 64-56 17-83 31-92 50m-1442 4596-11 40c-9 50-25 94-30 169-5 80-31 160 14 287 45 126 16 243 162 219 146-25 389-103 474-153 85-51 277-254 397-259s163-45 243 17c80 63 155 96 167 184 12 89 38 145-24 233-63 89-197 241-247 306-50 64-175 260-206 331s-80 139-72 210c9 71 26 150 66 188s110 182 299 212c189 29 340-72 453-61 113 10 254 17 254 71s39 167-40 201-164 68-204 165c-39 98-52 157-12 214s75 64 134 78 116 18 161 25"
    ></path>
    <path
      d="M16002 12737c106 39 101 119 262 109 162-10 228-52 356-40 129 12 210 73 271 115 61 41 177 76 243 119 66 44 96 85 231 144 136 59 163 79 271 46s135-68 229-61l219 14c141 9 144-21 248-65 104-43 186-102 240-118 54-15 142-55 208-10m1422-3177c92 78 137 69 182 170s-15 158 87 221c102 62 241 142 257 224 16 81-47 180 12 274s191 173 215 245c25 71 73 139 33 217a646 646 0 0 1-215 222c-64 31-239 94-274 146s-92 198-122 276c-29 78-92 179-220 257-129 78-249 113-281 194-33 82-53 136-39 215 14 80 19 138 19 219s20 160-36 195c-56 34-184 116-224 137s-99 66-89 74m7969-6298c-19 2-22 12-36 22-5 4-15 9-21 10-78 6-180-13-241 7-64 21-88 101-121 167-33 65-66 133-129 175-62 42-140 31-159 142s43 174-61 248c-104 75-247 153-250 224-3 72 14 186 2 289-12 102-5 234-44 293-38 59-47 229-161 217-115-12-193-71-302-102-110-32-255 45-325 86-69 42-283 103-312 172-30 70-6 157-13 233-6 76-55 146-43 210s40 120 23 168-127 151-203 171c-77 19-179 81-252 126s-117 91-123 150c-7 59-54 227-6 265"
    ></path>
    <path
      d="M28139 7656c-29 57-42 125-95 157s-122 32-179 83c-56 51-72 140-141 168-70 28-200 40-230 10-31-29-67-173-133-166-66 6-155 93-189 130-35 36-153 25-224-8s-92-89-162-79-148 93-213 121c-64 27-114 78-120 103m6258 10957c-118 68-223 75-217 172 5 98 13 191-18 254s-118 114-208 146a892 892 0 0 0-250 154c-30 31-160 73-205 82-45 8-87 12-134 54m-1765-2947c3 127-61 198-26 276 34 78 106 165 205 188 98 22 152 108 230 135 79 28 190 33 231 87 42 54 52 158 160 182 108 25 137 16 193 42 55 26 100 16 106 63m3830-5101c-33 64-51 104-162 132s-160 41-227 99c-68 57-157 158-245 128-89-29-184-123-240-133-55-11-170 8-232 62s-98 80-82 163c16 84 56 177 28 273-28 95 22 229-61 276s-189 101-214 193c-24 92-24 258-85 295-60 36-204 152-222 227-17 75-24 264-106 314-81 51-104 129-144 210-40 82-36 191-121 233s-247 87-249 123m-3192 15613c-19-66-23-92-77-130s-121-66-55-115 187-121 194-171c7-51 29-145 12-178-16-33-45-104-78-124"
    ></path>
    <path
      d="M31093 30400c-68 33-62 54-135 88-73 35-90 85-192 44-101-42-226-111-307-139-81-29-154-80-213-71-59 8-199 66-252 94-52 29-180 103-262 100-81-2-233-32-279-51s-141-37-167-55c-26-16-36-30-40-40m5864-15106c35 96 62 115 2 184-61 70-92 87-47 171 45 83 22 154 57 241s99 161 3 215c-95 54-338 111-312 182 26 72 99 105 215 164 117 59 328 159 417 199 88 40 210 52 205 143-5 90 31 208 8 293-22 85 42 75 7 231-34 156-19 193 35 240 54 46 323 100 396 135s184 108 248 165 202 147 196 238c-5 90-26 241-128 297-102 55-342 151-418 192-77 42-290 125-349 162-59 36-261 165-271 232-11 68 8 360 1 426-6 66-88 194 54 238 143 43 410 138 446 210 37 71 122 208 122 295s57 210 0 304-89 198-200 224-246 26-342 17c-95-9-264 33-342 42-78 8-137-21-238-32-100-10-277 32-371 96s-255 160-276 239c-21 80 2 202-61 271s-179 106-92 183c87 76 193 133 196 224 4 90 9 194-93 248-103 54-184 128-209 189-24 61-40 64-40 181 0 116-7 185 148 230 154 46 358 160 429 157 71-4 211-37 359-9s328 73 391 141 130 102 119 227c-10 125 6 136-83 264-88 128-161 238-142 323s-9 139 71 174c80 34 71 36 189 88s221 120 240 172c18 50 42 136 44 201l2 50v26"
    ></path>
    <path
      d="M31239 21182c47 88 94 89 90 170-3 82-62 151 16 217s139 68 251 122c113 53 216 93 280 159s95 103 76 214-36 335-19 432c18 97 4 254 44 321 40 68 5 136 123 177 118 42 344 14 406 7s228 25 302 87c75 63 255 129 344 189 88 61 208 108 304 176 95 67 264 69 416 64 153-5 384 33 464 14s210-90 283-75c73 16 349 144 392 181 44 36 137 104 167 140"
    ></path>
    <path
      d="M30496 23149c83 45 66 108 206 109 141 2 157-26 259-80s215-119 295-163c80-43 99-85 182-104 84-19 120-59 252-61 132-1 273 16 316 56m6044-4167c-113 59-165 130-290 134-125 3-164-21-282-44-118-22-205-74-305-8-101 66-12 168-169 201-156 33-333 94-395 144-63 51-73 65-72 157 2 92 85 170-31 260s-312 175-359 210-103 71-113 115c-11 43-75 45-59 111m-2048 357c-2 57-39 53 5 140 45 87 64 117 89 192s35 120 88 173 96 149 102 177m2555-3726c-15 56-11 117-71 147-60 29-106 85-183 102-77 18-146 42-172 78-25 37-60 99-49 121m-403-3273c109 51 99 115 201 169 103 54 32 94 174 47s201-110 307-71c106 38 73 112 197 138 123 26 213 21 232 82s71 205 78 271 9 187 96 139c87-49 154-203 215-229 61-27 325-188 439-207 115-19 289-64 308-129 19-64 107-144 173-159 66-16 146-38 216-31 69 6 159 10 227 29 64 18 170-3 233-40l40-24c19-11 38-23 39-25M35700 3719c-23 38-40 85-21 132s38 115-9 176c-47 60-55 118-142 163s-125 55-129 130c-3 75 4 213-55 274s-111 127-196 158-171 57-216 97-154 120-142 165 2 134 31 197 45 92 55 139a751 751 0 0 1 10 182c-1 9 2 33 2 34m5490 1875c2-1 5-17 16-33 12-16 29-27 31-28 88-43 144-120 247-156 108-39 109-89 213-115 105-26 223-85 223-149 0-65 38-205-21-264s-188-228-198-268 5-173 12-203m608 202c78-65 116-139 189-108s141 97 210 129c69 31 151 48 135-28-15-77-111-207-86-261 24-54 59-130 152-137 94-7 198-31 250-55 49-23 50-40 88-57 1-1 30-16 59-27 27-10 55-22 56-23m-3106-3791-22 32c-30 41-89 75-95 138-7 68 66 96 86 156 21 61 26 115-27 145-54 29-110 10-183 3s-139-36-177 10c-38 47-61 153-111 174s-163 21-193-42M27708 4533c5 0 27-5 49-5 19 0 35 7 36 8 58 29 89 46 171 28 85-19 177-63 187-143 11-79 24-246 85-249 61-4 177 20 210 85 33 64 16 154 16 250 0 95 3 234-35 291-38 58-61 125 14 162 75 36 193 100 264 114s134-55 215-97c82-42 125-50 136 7 10 57 10 163 1 234s18 124-100 153c-118 30-342 97-401 146s-134 108-134 168c0 61-102 238 9 235 111-4 218-125 270-108 53 17 325 28 360 71 35 44 7 141-21 200s-82 121-17 179c64 57 187 100 224 118 36 17 71 22 73 57m2700 23357c-19-65-83-131-26-207 57-75 95-53 133-142 38-88-18-90 59-166s126-170 130-209m1633-2325c-79 60-217 140-256 159-39 18-91 13-70 73s81 135 83 213c3 78 29 175-57 172s-206-52-276-42c-70 11-117 86-125 112s-62 99-135 78m-2732-1722c-26-44-63-85-67-125-3-41-11-102 38-141 50-39 59-82 133-78s146 1 177 33c31 31 21 155 86 158 65 4 137-62 176-89 39-28 83-76 105-43 22 32 42 105 37 165s18 129 95 147 135 64 189 81c53 17 105 5 91 57-15 52-95 119-107 155-12 37-60 152 16 164 75 12 96-8 171-53 76-46 221-181 288-206 68-25 106-66 143-10 38 56 53 131 24 170s-116 156-190 190-126 52-117 91c9 40 36 76 127 75 91-2 246 2 311-19 66-20 188-138 239-160s126-74 152-54c26 19 78 66 52 108-26 41-148 127-164 170s-82 115-174 117c-93 3-219-22-263 10-45 31-66 72-58 104 8 31 48 92 82 133s48 84 65 108m-14829-5326c-4 63-26 159-97 175-72 15-201 18-246 52-46 34-90 109-121 131-32 22-184 112-228 141-45 28-188 99-232 114-44 16-103 81-110 101-6 19-52 157-74 207a826 826 0 0 1-165 199c-33 19-132 78-125 125M7469 8079c-51 68-52 35-52 172s10 228-19 316c-30 89 7 177-58 242-77 77-118 154-210 152-36-1-103-17-148-47-30-20-68-57-113-102-23-24-36-46-61-63-74-51-157-78-217-76-43 1-155 27-252 69-81 35-155 100-202 124-57 29-90 84-110 125-18 33-17 56-29 98-13 48-20 100-29 151-9 50-21 98-7 154 28 111 90 274 62 337s7 197-85 191c-92-7-189-120-271-106-81 14-199 81-222 154-22 73-62 156-38 228 24 71 83 189 40 317-43 129-90 318-82 384 9 66 33 148 40 217s-26 151-102 186c-77 34-139 83-148 153-8 69 11 190-36 248-47 57-104 151-172 165s-101 67-174 41"
    ></path>
    <path
      d="M8617 14501c-51-95-115-141-183-172s-216-88-279-122c-62-35-113-68-124-100s-47-184 6-267c52-83 46-276-2-330-49-54-96-144-183-139-86 5-270 19-321 80-50 61-40 240-85 292s-123 152-203 154-94 30-220-33c-127-62-285-104-344-180-59-77-111-290-146-358s-68-142-182-175c-115-33-271-75-320-132-48-58-69-129-34-205 34-77 71-219 8-238-62-19-251-76-305-113-54-36-110-161-188-212-78-50-99 25-206-12-108-36-138-14-144-81-7-68 24-139-63-151-87-13-212 15-271-47a298 298 0 0 0-248-106c-111 8-245 97-326 71a518 518 0 0 1-228-167c-22-47-55-192-95-264-40-71-186-191-250-239-65-49-197-101-210-141-13-37-55-152-61-196l-9-55m3416 6542c35 54 99 94 176 125s131 61 177 97c45 37 128 139 196 120s107-76 97-162c-10-85 3-229 68-239 64-11 201-24 300-94 99-69 151-208 280-257 128-48 227-83 270-47 44 37 155 87 172 158 18 72 37 193 2 268s-1 345-4 402c-2 32-11 98-11 161 1 51 9 101 26 128 38 61 169 175 220 228 50 54 102 154 124 245s1 239-28 321c-17 48-69 92-110 140-23 27-52 77-66 107-33 72-118 153-99 216 19 62 9 145 89 196 80 50 210 121 244 163s106 95 219 149 172 59 283 47 247-28 314-3c68 24 160 34 202 90 41 56 90 156 78 210s-38 158-87 200c-48 41-114 99-130 156s-56 127-7 187c49 61 57 115 97 188s132 156 111 255-53 163-119 219c-66 55-139 116-139 200 0 83-7 158 47 217 53 59 173 119 213 204s50 120 49 150c-1 25-4 72-12 100-1 6-27 68-29 72"
    ></path>
    <path
      d="M9393 15870c47 90 62 165 106 276 43 111 38 127 116 198s132 127 135 196c4 70 6 164-15 240s-23 128-9 212c12 72 40 185 42 271 1 13-25 75-25 87-7 88 12 96 45 146s126 103 209 138c83 34 163 82 216 148 54 66 83 167 71 231-6 34-25 87-58 125-30 33-74 51-98 77-53 56-83 42-116 111-33 70-33 159-25 255 9 95 24 126 28 206 3 80 2 114-52 147s-129 79-187 104c-36 16-64 46-108 74-26 16-61 30-96 43-44 17-143 67-174 100l-83 91c-33 35-205 132-256 161-19 12-47 13-67 27-33 23-55 58-62 73-10 24-10 47 0 63m29897-143c-132 2-109-33-203-36-94-4-111-12-196 38s-161 108-184 179-14 123 45 193c59 69 163 126 203 170 40 43 61 100 59 182-1 82 35 198-31 231s-161 99-196 165-30 213-46 272c-6 23-4 59-8 96-7 61-21 129-37 167-26 60-36 120-170 221-135 102-265 190-302 220-36 29-8 167-113 213s-108-34-263-10c-156 23-198 62-313 128-114 66-112 58-220 133-107 75-146 52-219 78s-96 32-99 143c-4 111 10 214-38 287-49 73-143 120-254 182-111 63-212 148-295 186s-134 75-220 111c-87 36-214 130-271 146-57 15-111 28-146 62"
    ></path>
    <path
      d="M39117 20477c-73 31-153 92-201 127-49 35-177 128-224 158-47 29-122 102-160 165s-30 173-114 225c-43 25-90 46-130 72-33 21-62 46-87 65a3123 3123 0 0 1-44 32m-6497-8543c87 64 177 49 231 117 54 67 71 85 71 163s-41 215-43 293 22 163 9 274c-14 112-21 278-33 342-13 65 27 122 14 202-14 80-28 127 12 208 40 82 41 123 12 221-30 97-80 213-80 284 0 72-31 98 54 105s239 10 278 97c38 87-4 248 88 293s189 77 207 143c17 66 7 241 17 319 3 19 18 48 20 66 8 56 0 95-2 142-2 61-12 98-11 178 1 81-10 110 8 190 18 79 28 106 100 182 44 46 139 119 202 189 39 43 62 87 63 117 5 80-3 156-67 209-14 11-24 24-40 34-61 40-142 75-185 130-46 57-34 193-95 313-29 57-85 99-125 124-23 14-102 27-178 16-77-12-152-48-177-61-90-46-166-100-338-199-17-10-81-58-90-64-97-64-246-172-326-217s-153-96-235-73c-81 23-231 118-255 181-24 62-102 138-43 217 59 78 146 145 218 217 73 71 106 102 96 187s-73 188-12 299 54 180 151 251 288 98 378 183c91 85 99 113 82 206s-17 207-118 256c-101 48-182 105-179 189 3 83-14 205 85 272 99 68 203 138 234 231s58 150 0 221-232 199-354 170c-121-30-498-177-600-255-103-78-219-172-294-212-66-35-132-80-161-92l-36-19M28450 8653c116 21 193 71 276 110 84 38 189 57 240 112 50 56 47 103 64 195s54 200-19 243-175 61-201 146-32 321-120 354c-89 33-398 144-436 220-38 77-83 151-87 233-3 82 5 196-101 241-84 36-239 120-313 178-19 15-35 50-40 62-11 27-26 63-32 119-4 43 1 92-10 129a410 410 0 0 1-183 205c-60 31-119 47-232 19-50-12-97-41-143-52-58-15-114-10-171 10-102 34-207 110-306 171-99 60-181 112-238 142s-187 92-226 170"
    ></path>
    <path
      d="M20786 7745c0-14 16-61 18-64 31-51 80-95 134-93 55 1 149-3 201-48 53-46 108-125 153-126 45-2 156 5 220 123s54 255 38 328-23 201 14 313c15 46 35 115 84 169 67 75 171 130 222 149 90 33 174 84 320 138s184 129 307 179 230 114 319 173c42 28 90 55 127 83 40 30 63 62 67 100 4 33-17 82-17 120-1 45 17 79 63 112 85 62 129 118 251 180s191 160 260 151c70-8 278-111 379-92s293 150 396 221c102 71 203 139 295 179 92 39 130 78 213 138 84 61 143 165 231 193 89 28 167 52 254 109 87 58 161 124 253 167 92 44 275 82 347 126s211 92 227 177c15 85-13 158-36 258-11 52-23 66-24 110 0 39 17 98 30 136 9 28 27 46 36 75 13 42 15 95 7 122-14 45-35 99-16 210s54 253 32 326a1053 1053 0 0 0-10 472c17 85 43 176-25 216s-195-35-234-89c-40-54-68-203-65-273 4-69-36-158-80-180-43-23-194-24-196 26-1 50-26 229-12 316s31 186 16 314c-16 129 10 219-85 297-96 78-193 194-289 135-95-59-211-302-246-406s-151-239-179-304c-28-64-61-234-114-286-54-52-139-108-230-99-90 9-288 56-305 137-18 82-66 294-21 370s76 196 38 234-97 25-125-14-61-121-109-112c-49 8-123 93-117 135 7 42 60 153 35 194-24 42-184 198-245 184-60-13-184-161-305-138-122 22-212 59-240 114-24 49-49 119-52 154-1 5 1 52 1 55"
    ></path>
    <path
      d="M23625 6944c0 48 12 119 48 145 37 26 167 84 198 131 32 46 45 232 35 291s-59 122-118 160-148 59-163 106c-16 47-44 47-47 116-4 70 22 158-30 212s-107 94-152 132-92 28-99 108c-7 79 29 316 27 376-1 61 8 134-14 212-7 24-14 53-10 84 11 66 46 137 49 173 2 36 5 56 2 77-2 21-24 80-27 106s-25 92-23 107c2 14-17 81 2 97m176 6435 22 11c31 22 72 65 99 56 29-11 178-73 222-83 45-9 206 3 229 15 23 11 77 82 92 117 16 35 25 180 15 207-10 26-23 105-55 131s-106 119-158 161c-52 41-50 121-64 192s-42 275-16 328c12 25 17 70 45 105 34 44 98 87 141 104 76 30 237 128 294 168 58 40 97 194 88 246s-10 151-78 196c-42 28-137 101-247 148-86 37-137 79-171 125-26 35-51 94-67 142-15 49 2 122 19 155 18 32 32 43 63 20 15-11 107-96 192-116 99-23 179 30 197 52 14 16 39 50 40 87 1 47-29 99-62 115-60 29-210 76-268 98-58 23-118 85-105 125 13 41 1 134 66 159s280 66 326 99 92 97 92 139-14 188-49 222-73 94-116 130c-44 37-97 74-78 130 18 55 84 108 125 98 40-11 204-74 246-88s110-41 137-4c27 36 48 174 28 215-20 42-22 244-37 309-16 65 31 229 23 291s16 145 16 179 7 198 10 239c4 40 9 105 16 134s-1 85-4 126c-2 41-14 77-19 115-4 39-27 84-37 112-10 27-6 69-9 96-2 23-6 63-2 88l6 38M12004 10518l-14 14c-77 34-130 52-168 111-38 61-65 111-53 184s12 97 97 167c85 69 156 125 158 174 2 48-52 140-9 225 44 85 85 148 172 195s137 41 135 135c-1 94-5 233-19 288s-62 129-36 190c26 60 71 105 68 182-4 76-89 258-52 357 36 99 38 188 114 259s99 125 215 167c117 41 237 62 335 26 99-37 224-45 341-23 116 23 236 87 323 134 86 47 227 78 276 151 48 73 100 108 73 170-28 63-113 134-165 179s-49 198-58 283c-8 85-41 233-15 288s94 118 80 170-89 110-68 190c21 79-37 93 97 130 134 36 264 34 320 26 55-9 116-70 246-37s148 25 193 117 40 213 40 281-28 158-7 262 15 175 22 248-13 176-20 247-70 166-26 222c43 56 111 151 217 165 105 14 319-36 395-42 77-5 158-36 214 37s108 144 90 198c-17 53-19 255-45 312s-2 123 35 186c36 62 43 92 179 113 135 21 328-89 406-136s168-144 259-149c90-5 246-55 270-156 25-101 36-249 26-373-11-123-48-224 8-306s180-108 262-95c83 13 94 157 98 236 1 41 49 90 105 123 51 30 86 70 134 94 109 55 182 104 305 79 118-23 230-66 329-129l56-31"
    ></path>
    <path
      d="M15177 13267c73 48 76 112 180 130 104 17 193 26 243 62 51 37 77 106 170 146 94 40 243 82 282 122 38 39 97 105 180 156 84 50 117 95 238 107 122 13 177 61 252 117 74 55 154 109 234 135s193 33 212 87 47 139-7 179-82 38-207 83-210 80-283 129c-72 48-130 119-250 170a484 484 0 0 0-213 139c-59 64-24 166-130 166s-132-15-219 39-75 121-96 184c-20 62 60 144-46 185-106 42-205 84-209 125-3 42-5 70 65 113 69 44 140 21 258 75s228 104 262 151c35 47 92 132 151 186 59 53 169 107 235 93 62-13 121-15 144-49l7-12m-843 2552c75 40 88 68 165 109s135 52 135 103c0 50 12 112 33 180s16 169 78 217c63 49 144 110 228 144 83 35 180 61 210 122 29 61 40 94 40 182 0 89-33 287-30 358 4 71 16 165 108 196s238 140 319 179 191 119 233 152 165 148 194 245c30 98 15 197 67 270 15 21 42 46 68 64 82 59 200 109 253 149 69 52 116 45 159 170 28 81 44 161 59 226 9 36 16 59 45 80 82 59 410 194 518 258 107 65 154 132 238 177 83 46 170 61 222 63s92 28 69 78c-22 50-80 137-151 188-71 50-128 104-199 99-72-6-195-23-219 27-24 51-12 49 5 106 17 58 37 108 4 167s-52 111-40 149-14 96-49 106c-35 11-87 40-106 83-18 42-26 127 40 174l69 50"
    ></path>
    <path
      d="M17637 17536c43 69 59 93 114 191 56 97 53 172 100 249 47 76 42 95 110 196 67 101 137 195 130 246-7 50-25 111-74 151s-169 84-241 113c-71 30-115 59-126 122-15 82 29 119 67 153 52 45 106 80 112 165 4 79 14 155-8 222s-20 133-97 177a428 428 0 0 0-151 151c-27 45-52 121-36 174 16 52-5 104 14 184s14 133 17 215c4 81 24 151-21 217s-106 170-161 196c-56 26-109 71-93 99"
    ></path>
  </g>
  <!-- <kingdom-names />
  <settlements-icons />
  <settlement-names />--><!-- <darlene-signature /> -->
</svg>
