<svg
  xmlns="http://www.w3.org/2000/svg"
  width="4224"
  height="3168"
  fill-rule="evenodd"
  stroke-linecap="round"
  stroke-linejoin="round"
  paint-order="stroke"
  viewBox="720 1440 43000 32000"
>
  <path
    fill="none"
    stroke="#bd7155"
    stroke-dasharray="48 72"
    stroke-width="24"
    d="M9412 12360c4-69-3-201 14-254 16-53 17-136 80-168s134-40 160-99 30-34 36-115-30-205 3-252 46-89 160-84c115 5 178 31 216-16 38-48 45-95 38-124-6-28 33-77 62-93m5320 9145c-6-60 20-127 38-186s116-110 161-147 97-116 77-197c-21-81-72-130-27-192 44-61 139-90 190-107 50-18 140-52 151-66m-1046 484c43-56 74-78 108-151s103-31 71-154c-32-122 63-93-73-162-137-69-266-127-257-188 8-60-12-197 61-249s147-155 263-139c115 15 123 57 143 43 21-13 198-107 237-127 38-21 40-32 66-34M41550 7390c74-34 147-44 257-112 110-67 206-95 194-185-13-91 0-166 5-191 4-24 24-88 21-115-2-27 0-72 0-85m-3087-1951a742 742 0 0 1-115-363c-7-106-67-259 12-346 80-87 216-130 235-220 19-91 64-203 40-334a447 447 0 0 1 62-316c45-73 245-175 328-237 84-63 202-124 196-190-5-66-19-114 7-178m-8246 3397c-31-69-63-68-75-174-12-105 23-171-7-270-29-99 4-176-95-228s-219-92-240-163-12-179 26-240c38-60 23-158 9-189m-2860 2657c126-9 199-33 239-92s74-142 175-153c100-10 179-101 244-105 64-3 121-21 125-52 3-30 12-99 9-112"
  />
</svg>
